<?xml version="1.0" encoding="utf-8" standalone="no"?>
<!DOCTYPE svg PUBLIC "-//W3C//DTD SVG 1.1//EN"
  "http://www.w3.org/Graphics/SVG/1.1/DTD/svg11.dtd">
<svg xmlns:xlink="http://www.w3.org/1999/xlink" width="572.4pt" height="499.51775pt" viewBox="0 0 572.4 499.51775" xmlns="http://www.w3.org/2000/svg" version="1.1">
 <metadata>
  <rdf:RDF xmlns:dc="http://purl.org/dc/elements/1.1/" xmlns:cc="http://creativecommons.org/ns#" xmlns:rdf="http://www.w3.org/1999/02/22-rdf-syntax-ns#">
   <cc:Work>
    <dc:type rdf:resource="http://purl.org/dc/dcmitype/StillImage"/>
    <dc:date>2026-05-29T16:22:49.527208</dc:date>
    <dc:format>image/svg+xml</dc:format>
    <dc:creator>
     <cc:Agent>
      <dc:title>Matplotlib v3.10.9, https://matplotlib.org/</dc:title>
     </cc:Agent>
    </dc:creator>
   </cc:Work>
  </rdf:RDF>
 </metadata>
 <defs>
  <style type="text/css">*{stroke-linejoin: round; stroke-linecap: butt}</style>
 </defs>
 <g id="figure_1">
  <g id="patch_1">
   <path d="M 0 499.51775 
L 572.4 499.51775 
L 572.4 0 
L 0 0 
z
" style="fill: #0b0f19"/>
  </g>
  <g id="axes_1">
   <g id="LineCollection_1">
    <path d="M 286.481877 270.333703 
L 516.778512 87.285023 
" clip-path="url(#pc4a6539a47)" style="fill: none; stroke: #475569; stroke-opacity: 0.45; stroke-width: 1.5"/>
    <path d="M 286.481877 270.333703 
L 55.621488 453.830477 
" clip-path="url(#pc4a6539a47)" style="fill: none; stroke: #475569; stroke-opacity: 0.45; stroke-width: 1.5"/>
   </g>
   <g id="PathCollection_1">
    <defs>
     <path id="md35ecb8f58" d="M 0 12.247449 
C 3.248061 12.247449 6.363528 10.95698 8.660254 8.660254 
C 10.95698 6.363528 12.247449 3.248061 12.247449 0 
C 12.247449 -3.248061 10.95698 -6.363528 8.660254 -8.660254 
C 6.363528 -10.95698 3.248061 -12.247449 0 -12.247449 
C -3.248061 -12.247449 -6.363528 -10.95698 -8.660254 -8.660254 
C -10.95698 -6.363528 -12.247449 -3.248061 -12.247449 0 
C -12.247449 3.248061 -10.95698 6.363528 -8.660254 8.660254 
C -6.363528 10.95698 -3.248061 12.247449 0 12.247449 
z
" style="stroke: #38bdf8; stroke-opacity: 0.18"/>
    </defs>
    <g clip-path="url(#pc4a6539a47)">
     <use xlink:href="#md35ecb8f58" x="286.481877" y="270.333703" style="fill: #38bdf8; fill-opacity: 0.18; stroke: #38bdf8; stroke-opacity: 0.18"/>
    </g>
   </g>
   <g id="PathCollection_2">
    <path d="M 516.778512 109.701534 
L 530.228419 87.285023 
L 516.778512 64.868511 
L 503.328605 87.285023 
z
" clip-path="url(#pc4a6539a47)" style="fill: #c084fc; fill-opacity: 0.15; stroke: #c084fc; stroke-opacity: 0.15"/>
    <path d="M 55.621488 476.246989 
L 69.071395 453.830477 
L 55.621488 431.413966 
L 42.171581 453.830477 
z
" clip-path="url(#pc4a6539a47)" style="fill: #c084fc; fill-opacity: 0.15; stroke: #c084fc; stroke-opacity: 0.15"/>
   </g>
   <g id="PathCollection_3">
    <defs>
     <path id="mc17b66dcdb" d="M 0 8.944272 
C 2.372049 8.944272 4.647264 8.001847 6.324555 6.324555 
C 8.001847 4.647264 8.944272 2.372049 8.944272 0 
C 8.944272 -2.372049 8.001847 -4.647264 6.324555 -6.324555 
C 4.647264 -8.001847 2.372049 -8.944272 0 -8.944272 
C -2.372049 -8.944272 -4.647264 -8.001847 -6.324555 -6.324555 
C -8.001847 -4.647264 -8.944272 -2.372049 -8.944272 0 
C -8.944272 2.372049 -8.001847 4.647264 -6.324555 6.324555 
C -4.647264 8.001847 -2.372049 8.944272 0 8.944272 
z
" style="stroke: #0f172a; stroke-opacity: 0.95; stroke-width: 1.2"/>
    </defs>
    <g clip-path="url(#pc4a6539a47)">
     <use xlink:href="#mc17b66dcdb" x="286.481877" y="270.333703" style="fill: #38bdf8; fill-opacity: 0.95; stroke: #0f172a; stroke-opacity: 0.95; stroke-width: 1.2"/>
    </g>
   </g>
   <g id="PathCollection_4">
    <path d="M 516.778512 105.588028 
L 527.760316 87.285023 
L 516.778512 68.982018 
L 505.796709 87.285023 
z
" clip-path="url(#pc4a6539a47)" style="fill: #c084fc; fill-opacity: 0.95; stroke: #0f172a; stroke-opacity: 0.95; stroke-width: 1.2"/>
    <path d="M 55.621488 472.133482 
L 66.603291 453.830477 
L 55.621488 435.527472 
L 44.639684 453.830477 
z
" clip-path="url(#pc4a6539a47)" style="fill: #c084fc; fill-opacity: 0.95; stroke: #0f172a; stroke-opacity: 0.95; stroke-width: 1.2"/>
   </g>
   <g id="text_1">
    <g clip-path="url(#pc4a6539a47)">
     <!-- P0DTC2 -->
     <g style="fill: #e2e8f0" transform="translate(272.102971 255.978305) scale(0.075 -0.075)">
      <defs>
       <path id="Arial-BoldMT-50" d="M 466 0 
L 466 4581 
L 1950 4581 
Q 2794 4581 3050 4513 
Q 3444 4409 3709 4064 
Q 3975 3719 3975 3172 
Q 3975 2750 3822 2462 
Q 3669 2175 3433 2011 
Q 3197 1847 2953 1794 
Q 2622 1728 1994 1728 
L 1391 1728 
L 1391 0 
L 466 0 
z
M 1391 3806 
L 1391 2506 
L 1897 2506 
Q 2444 2506 2628 2578 
Q 2813 2650 2917 2803 
Q 3022 2956 3022 3159 
Q 3022 3409 2875 3571 
Q 2728 3734 2503 3775 
Q 2338 3806 1838 3806 
L 1391 3806 
z
" transform="scale(0.015625)"/>
       <path id="Arial-BoldMT-30" d="M 1756 4600 
Q 2422 4600 2797 4125 
Q 3244 3563 3244 2259 
Q 3244 959 2794 391 
Q 2422 -78 1756 -78 
Q 1088 -78 678 436 
Q 269 950 269 2269 
Q 269 3563 719 4131 
Q 1091 4600 1756 4600 
z
M 1756 3872 
Q 1597 3872 1472 3770 
Q 1347 3669 1278 3406 
Q 1188 3066 1188 2259 
Q 1188 1453 1269 1151 
Q 1350 850 1473 750 
Q 1597 650 1756 650 
Q 1916 650 2041 751 
Q 2166 853 2234 1116 
Q 2325 1453 2325 2259 
Q 2325 3066 2244 3367 
Q 2163 3669 2039 3770 
Q 1916 3872 1756 3872 
z
" transform="scale(0.015625)"/>
       <path id="Arial-BoldMT-44" d="M 463 4581 
L 2153 4581 
Q 2725 4581 3025 4494 
Q 3428 4375 3715 4072 
Q 4003 3769 4153 3330 
Q 4303 2891 4303 2247 
Q 4303 1681 4163 1272 
Q 3991 772 3672 463 
Q 3431 228 3022 97 
Q 2716 0 2203 0 
L 463 0 
L 463 4581 
z
M 1388 3806 
L 1388 772 
L 2078 772 
Q 2466 772 2638 816 
Q 2863 872 3011 1006 
Q 3159 1141 3253 1448 
Q 3347 1756 3347 2288 
Q 3347 2819 3253 3103 
Q 3159 3388 2990 3547 
Q 2822 3706 2563 3763 
Q 2369 3806 1803 3806 
L 1388 3806 
z
" transform="scale(0.015625)"/>
       <path id="Arial-BoldMT-54" d="M 1497 0 
L 1497 3806 
L 138 3806 
L 138 4581 
L 3778 4581 
L 3778 3806 
L 2422 3806 
L 2422 0 
L 1497 0 
z
" transform="scale(0.015625)"/>
       <path id="Arial-BoldMT-43" d="M 3397 1684 
L 4294 1400 
Q 4088 650 3608 286 
Q 3128 -78 2391 -78 
Q 1478 -78 890 545 
Q 303 1169 303 2250 
Q 303 3394 893 4026 
Q 1484 4659 2447 4659 
Q 3288 4659 3813 4163 
Q 4125 3869 4281 3319 
L 3366 3100 
Q 3284 3456 3026 3662 
Q 2769 3869 2400 3869 
Q 1891 3869 1573 3503 
Q 1256 3138 1256 2319 
Q 1256 1450 1568 1081 
Q 1881 713 2381 713 
Q 2750 713 3015 947 
Q 3281 1181 3397 1684 
z
" transform="scale(0.015625)"/>
       <path id="Arial-BoldMT-32" d="M 3238 816 
L 3238 0 
L 159 0 
Q 209 463 459 877 
Q 709 1291 1447 1975 
Q 2041 2528 2175 2725 
Q 2356 2997 2356 3263 
Q 2356 3556 2198 3714 
Q 2041 3872 1763 3872 
Q 1488 3872 1325 3706 
Q 1163 3541 1138 3156 
L 263 3244 
Q 341 3969 753 4284 
Q 1166 4600 1784 4600 
Q 2463 4600 2850 4234 
Q 3238 3869 3238 3325 
Q 3238 3016 3127 2736 
Q 3016 2456 2775 2150 
Q 2616 1947 2200 1565 
Q 1784 1184 1673 1059 
Q 1563 934 1494 816 
L 3238 816 
z
" transform="scale(0.015625)"/>
      </defs>
      <use xlink:href="#Arial-BoldMT-50"/>
      <use xlink:href="#Arial-BoldMT-30" transform="translate(66.699219 0)"/>
      <use xlink:href="#Arial-BoldMT-44" transform="translate(122.314453 0)"/>
      <use xlink:href="#Arial-BoldMT-54" transform="translate(194.53125 0)"/>
      <use xlink:href="#Arial-BoldMT-43" transform="translate(255.615234 0)"/>
      <use xlink:href="#Arial-BoldMT-32" transform="translate(327.832031 0)"/>
     </g>
    </g>
   </g>
   <g id="text_2">
    <g clip-path="url(#pc4a6539a47)">
     <!-- NF-kappa B signaling pathway -->
     <g style="fill: #e2e8f0" transform="translate(462.400583 72.880406) scale(0.075 -0.075)">
      <defs>
       <path id="Arial-BoldMT-4e" d="M 475 0 
L 475 4581 
L 1375 4581 
L 3250 1522 
L 3250 4581 
L 4109 4581 
L 4109 0 
L 3181 0 
L 1334 2988 
L 1334 0 
L 475 0 
z
" transform="scale(0.015625)"/>
       <path id="Arial-BoldMT-46" d="M 472 0 
L 472 4581 
L 3613 4581 
L 3613 3806 
L 1397 3806 
L 1397 2722 
L 3309 2722 
L 3309 1947 
L 1397 1947 
L 1397 0 
L 472 0 
z
" transform="scale(0.015625)"/>
       <path id="Arial-BoldMT-2d" d="M 359 1222 
L 359 2100 
L 2084 2100 
L 2084 1222 
L 359 1222 
z
" transform="scale(0.015625)"/>
       <path id="Arial-BoldMT-6b" d="M 428 0 
L 428 4581 
L 1306 4581 
L 1306 2150 
L 2334 3319 
L 3416 3319 
L 2281 2106 
L 3497 0 
L 2550 0 
L 1716 1491 
L 1306 1063 
L 1306 0 
L 428 0 
z
" transform="scale(0.015625)"/>
       <path id="Arial-BoldMT-61" d="M 1116 2306 
L 319 2450 
Q 453 2931 781 3162 
Q 1109 3394 1756 3394 
Q 2344 3394 2631 3255 
Q 2919 3116 3036 2902 
Q 3153 2688 3153 2116 
L 3144 1091 
Q 3144 653 3186 445 
Q 3228 238 3344 0 
L 2475 0 
Q 2441 88 2391 259 
Q 2369 338 2359 363 
Q 2134 144 1878 34 
Q 1622 -75 1331 -75 
Q 819 -75 523 203 
Q 228 481 228 906 
Q 228 1188 362 1408 
Q 497 1628 739 1745 
Q 981 1863 1438 1950 
Q 2053 2066 2291 2166 
L 2291 2253 
Q 2291 2506 2166 2614 
Q 2041 2722 1694 2722 
Q 1459 2722 1328 2630 
Q 1197 2538 1116 2306 
z
M 2291 1594 
Q 2122 1538 1756 1459 
Q 1391 1381 1278 1306 
Q 1106 1184 1106 997 
Q 1106 813 1243 678 
Q 1381 544 1594 544 
Q 1831 544 2047 700 
Q 2206 819 2256 991 
Q 2291 1103 2291 1419 
L 2291 1594 
z
" transform="scale(0.015625)"/>
       <path id="Arial-BoldMT-70" d="M 434 3319 
L 1253 3319 
L 1253 2831 
Q 1413 3081 1684 3237 
Q 1956 3394 2288 3394 
Q 2866 3394 3269 2941 
Q 3672 2488 3672 1678 
Q 3672 847 3265 386 
Q 2859 -75 2281 -75 
Q 2006 -75 1782 34 
Q 1559 144 1313 409 
L 1313 -1263 
L 434 -1263 
L 434 3319 
z
M 1303 1716 
Q 1303 1156 1525 889 
Q 1747 622 2066 622 
Q 2372 622 2575 867 
Q 2778 1113 2778 1672 
Q 2778 2194 2568 2447 
Q 2359 2700 2050 2700 
Q 1728 2700 1515 2451 
Q 1303 2203 1303 1716 
z
" transform="scale(0.015625)"/>
       <path id="Arial-BoldMT-20" transform="scale(0.015625)"/>
       <path id="Arial-BoldMT-42" d="M 469 4581 
L 2300 4581 
Q 2844 4581 3111 4536 
Q 3378 4491 3589 4347 
Q 3800 4203 3940 3964 
Q 4081 3725 4081 3428 
Q 4081 3106 3907 2837 
Q 3734 2569 3438 2434 
Q 3856 2313 4081 2019 
Q 4306 1725 4306 1328 
Q 4306 1016 4161 720 
Q 4016 425 3764 248 
Q 3513 72 3144 31 
Q 2913 6 2028 0 
L 469 0 
L 469 4581 
z
M 1394 3819 
L 1394 2759 
L 2000 2759 
Q 2541 2759 2672 2775 
Q 2909 2803 3045 2939 
Q 3181 3075 3181 3297 
Q 3181 3509 3064 3642 
Q 2947 3775 2716 3803 
Q 2578 3819 1925 3819 
L 1394 3819 
z
M 1394 1997 
L 1394 772 
L 2250 772 
Q 2750 772 2884 800 
Q 3091 838 3220 983 
Q 3350 1128 3350 1372 
Q 3350 1578 3250 1722 
Q 3150 1866 2961 1931 
Q 2772 1997 2141 1997 
L 1394 1997 
z
" transform="scale(0.015625)"/>
       <path id="Arial-BoldMT-73" d="M 150 947 
L 1031 1081 
Q 1088 825 1259 692 
Q 1431 559 1741 559 
Q 2081 559 2253 684 
Q 2369 772 2369 919 
Q 2369 1019 2306 1084 
Q 2241 1147 2013 1200 
Q 950 1434 666 1628 
Q 272 1897 272 2375 
Q 272 2806 612 3100 
Q 953 3394 1669 3394 
Q 2350 3394 2681 3172 
Q 3013 2950 3138 2516 
L 2309 2363 
Q 2256 2556 2107 2659 
Q 1959 2763 1684 2763 
Q 1338 2763 1188 2666 
Q 1088 2597 1088 2488 
Q 1088 2394 1175 2328 
Q 1294 2241 1995 2081 
Q 2697 1922 2975 1691 
Q 3250 1456 3250 1038 
Q 3250 581 2869 253 
Q 2488 -75 1741 -75 
Q 1063 -75 667 200 
Q 272 475 150 947 
z
" transform="scale(0.015625)"/>
       <path id="Arial-BoldMT-69" d="M 459 3769 
L 459 4581 
L 1338 4581 
L 1338 3769 
L 459 3769 
z
M 459 0 
L 459 3319 
L 1338 3319 
L 1338 0 
L 459 0 
z
" transform="scale(0.015625)"/>
       <path id="Arial-BoldMT-67" d="M 378 -219 
L 1381 -341 
Q 1406 -516 1497 -581 
Q 1622 -675 1891 -675 
Q 2234 -675 2406 -572 
Q 2522 -503 2581 -350 
Q 2622 -241 2622 53 
L 2622 538 
Q 2228 0 1628 0 
Q 959 0 569 566 
Q 263 1013 263 1678 
Q 263 2513 664 2953 
Q 1066 3394 1663 3394 
Q 2278 3394 2678 2853 
L 2678 3319 
L 3500 3319 
L 3500 341 
Q 3500 -247 3403 -537 
Q 3306 -828 3131 -993 
Q 2956 -1159 2664 -1253 
Q 2372 -1347 1925 -1347 
Q 1081 -1347 728 -1058 
Q 375 -769 375 -325 
Q 375 -281 378 -219 
z
M 1163 1728 
Q 1163 1200 1367 954 
Q 1572 709 1872 709 
Q 2194 709 2416 961 
Q 2638 1213 2638 1706 
Q 2638 2222 2425 2472 
Q 2213 2722 1888 2722 
Q 1572 2722 1367 2476 
Q 1163 2231 1163 1728 
z
" transform="scale(0.015625)"/>
       <path id="Arial-BoldMT-6e" d="M 3478 0 
L 2600 0 
L 2600 1694 
Q 2600 2231 2544 2389 
Q 2488 2547 2361 2634 
Q 2234 2722 2056 2722 
Q 1828 2722 1647 2597 
Q 1466 2472 1398 2265 
Q 1331 2059 1331 1503 
L 1331 0 
L 453 0 
L 453 3319 
L 1269 3319 
L 1269 2831 
Q 1703 3394 2363 3394 
Q 2653 3394 2893 3289 
Q 3134 3184 3257 3021 
Q 3381 2859 3429 2653 
Q 3478 2447 3478 2063 
L 3478 0 
z
" transform="scale(0.015625)"/>
       <path id="Arial-BoldMT-6c" d="M 459 0 
L 459 4581 
L 1338 4581 
L 1338 0 
L 459 0 
z
" transform="scale(0.015625)"/>
       <path id="Arial-BoldMT-74" d="M 1981 3319 
L 1981 2619 
L 1381 2619 
L 1381 1281 
Q 1381 875 1398 808 
Q 1416 741 1477 697 
Q 1538 653 1625 653 
Q 1747 653 1978 738 
L 2053 56 
Q 1747 -75 1359 -75 
Q 1122 -75 931 4 
Q 741 84 652 211 
Q 563 338 528 553 
Q 500 706 500 1172 
L 500 2619 
L 97 2619 
L 97 3319 
L 500 3319 
L 500 3978 
L 1381 4491 
L 1381 3319 
L 1981 3319 
z
" transform="scale(0.015625)"/>
       <path id="Arial-BoldMT-68" d="M 1334 4581 
L 1334 2897 
Q 1759 3394 2350 3394 
Q 2653 3394 2897 3281 
Q 3141 3169 3264 2994 
Q 3388 2819 3433 2606 
Q 3478 2394 3478 1947 
L 3478 0 
L 2600 0 
L 2600 1753 
Q 2600 2275 2550 2415 
Q 2500 2556 2373 2639 
Q 2247 2722 2056 2722 
Q 1838 2722 1666 2615 
Q 1494 2509 1414 2295 
Q 1334 2081 1334 1663 
L 1334 0 
L 456 0 
L 456 4581 
L 1334 4581 
z
" transform="scale(0.015625)"/>
       <path id="Arial-BoldMT-77" d="M 1078 0 
L 28 3319 
L 881 3319 
L 1503 1144 
L 2075 3319 
L 2922 3319 
L 3475 1144 
L 4109 3319 
L 4975 3319 
L 3909 0 
L 3066 0 
L 2494 2134 
L 1931 0 
L 1078 0 
z
" transform="scale(0.015625)"/>
       <path id="Arial-BoldMT-79" d="M 44 3319 
L 978 3319 
L 1772 963 
L 2547 3319 
L 3456 3319 
L 2284 125 
L 2075 -453 
Q 1959 -744 1854 -897 
Q 1750 -1050 1614 -1145 
Q 1478 -1241 1279 -1294 
Q 1081 -1347 831 -1347 
Q 578 -1347 334 -1294 
L 256 -606 
Q 463 -647 628 -647 
Q 934 -647 1081 -467 
Q 1228 -288 1306 -9 
L 44 3319 
z
" transform="scale(0.015625)"/>
      </defs>
      <use xlink:href="#Arial-BoldMT-4e"/>
      <use xlink:href="#Arial-BoldMT-46" transform="translate(72.216797 0)"/>
      <use xlink:href="#Arial-BoldMT-2d" transform="translate(133.300781 0)"/>
      <use xlink:href="#Arial-BoldMT-6b" transform="translate(166.601562 0)"/>
      <use xlink:href="#Arial-BoldMT-61" transform="translate(222.216797 0)"/>
      <use xlink:href="#Arial-BoldMT-70" transform="translate(277.832031 0)"/>
      <use xlink:href="#Arial-BoldMT-70" transform="translate(338.916016 0)"/>
      <use xlink:href="#Arial-BoldMT-61" transform="translate(400 0)"/>
      <use xlink:href="#Arial-BoldMT-20" transform="translate(455.615234 0)"/>
      <use xlink:href="#Arial-BoldMT-42" transform="translate(483.398438 0)"/>
      <use xlink:href="#Arial-BoldMT-20" transform="translate(555.615234 0)"/>
      <use xlink:href="#Arial-BoldMT-73" transform="translate(583.398438 0)"/>
      <use xlink:href="#Arial-BoldMT-69" transform="translate(639.013672 0)"/>
      <use xlink:href="#Arial-BoldMT-67" transform="translate(666.796875 0)"/>
      <use xlink:href="#Arial-BoldMT-6e" transform="translate(727.880859 0)"/>
      <use xlink:href="#Arial-BoldMT-61" transform="translate(788.964844 0)"/>
      <use xlink:href="#Arial-BoldMT-6c" transform="translate(844.580078 0)"/>
      <use xlink:href="#Arial-BoldMT-69" transform="translate(872.363281 0)"/>
      <use xlink:href="#Arial-BoldMT-6e" transform="translate(900.146484 0)"/>
      <use xlink:href="#Arial-BoldMT-67" transform="translate(961.230469 0)"/>
      <use xlink:href="#Arial-BoldMT-20" transform="translate(1022.314453 0)"/>
      <use xlink:href="#Arial-BoldMT-70" transform="translate(1050.097656 0)"/>
      <use xlink:href="#Arial-BoldMT-61" transform="translate(1111.181641 0)"/>
      <use xlink:href="#Arial-BoldMT-74" transform="translate(1166.796875 0)"/>
      <use xlink:href="#Arial-BoldMT-68" transform="translate(1200.097656 0)"/>
      <use xlink:href="#Arial-BoldMT-77" transform="translate(1261.181641 0)"/>
      <use xlink:href="#Arial-BoldMT-61" transform="translate(1338.964844 0)"/>
      <use xlink:href="#Arial-BoldMT-79" transform="translate(1394.580078 0)"/>
     </g>
    </g>
   </g>
   <g id="text_3">
    <g clip-path="url(#pc4a6539a47)">
     <!-- SARS-CoV-2 Infection / Virion Assembly -->
     <g style="fill: #e2e8f0" transform="translate(-15.641403 439.471564) scale(0.075 -0.075)">
      <defs>
       <path id="Arial-BoldMT-53" d="M 231 1491 
L 1131 1578 
Q 1213 1125 1461 912 
Q 1709 700 2131 700 
Q 2578 700 2804 889 
Q 3031 1078 3031 1331 
Q 3031 1494 2936 1608 
Q 2841 1722 2603 1806 
Q 2441 1863 1863 2006 
Q 1119 2191 819 2459 
Q 397 2838 397 3381 
Q 397 3731 595 4036 
Q 794 4341 1167 4500 
Q 1541 4659 2069 4659 
Q 2931 4659 3367 4281 
Q 3803 3903 3825 3272 
L 2900 3231 
Q 2841 3584 2645 3739 
Q 2450 3894 2059 3894 
Q 1656 3894 1428 3728 
Q 1281 3622 1281 3444 
Q 1281 3281 1419 3166 
Q 1594 3019 2269 2859 
Q 2944 2700 3267 2529 
Q 3591 2359 3773 2064 
Q 3956 1769 3956 1334 
Q 3956 941 3737 597 
Q 3519 253 3119 86 
Q 2719 -81 2122 -81 
Q 1253 -81 787 320 
Q 322 722 231 1491 
z
" transform="scale(0.015625)"/>
       <path id="Arial-BoldMT-41" d="M 4597 0 
L 3591 0 
L 3191 1041 
L 1359 1041 
L 981 0 
L 0 0 
L 1784 4581 
L 2763 4581 
L 4597 0 
z
M 2894 1813 
L 2263 3513 
L 1644 1813 
L 2894 1813 
z
" transform="scale(0.015625)"/>
       <path id="Arial-BoldMT-52" d="M 469 0 
L 469 4581 
L 2416 4581 
Q 3150 4581 3483 4457 
Q 3816 4334 4016 4018 
Q 4216 3703 4216 3297 
Q 4216 2781 3912 2445 
Q 3609 2109 3006 2022 
Q 3306 1847 3501 1637 
Q 3697 1428 4028 894 
L 4588 0 
L 3481 0 
L 2813 997 
Q 2456 1531 2325 1670 
Q 2194 1809 2047 1861 
Q 1900 1913 1581 1913 
L 1394 1913 
L 1394 0 
L 469 0 
z
M 1394 2644 
L 2078 2644 
Q 2744 2644 2909 2700 
Q 3075 2756 3169 2893 
Q 3263 3031 3263 3238 
Q 3263 3469 3139 3611 
Q 3016 3753 2791 3791 
Q 2678 3806 2116 3806 
L 1394 3806 
L 1394 2644 
z
" transform="scale(0.015625)"/>
       <path id="Arial-BoldMT-6f" d="M 256 1706 
Q 256 2144 472 2553 
Q 688 2963 1083 3178 
Q 1478 3394 1966 3394 
Q 2719 3394 3200 2905 
Q 3681 2416 3681 1669 
Q 3681 916 3195 420 
Q 2709 -75 1972 -75 
Q 1516 -75 1102 131 
Q 688 338 472 736 
Q 256 1134 256 1706 
z
M 1156 1659 
Q 1156 1166 1390 903 
Q 1625 641 1969 641 
Q 2313 641 2545 903 
Q 2778 1166 2778 1666 
Q 2778 2153 2545 2415 
Q 2313 2678 1969 2678 
Q 1625 2678 1390 2415 
Q 1156 2153 1156 1659 
z
" transform="scale(0.015625)"/>
       <path id="Arial-BoldMT-56" d="M 1634 0 
L -3 4581 
L 1000 4581 
L 2159 1191 
L 3281 4581 
L 4263 4581 
L 2622 0 
L 1634 0 
z
" transform="scale(0.015625)"/>
       <path id="Arial-BoldMT-49" d="M 438 0 
L 438 4581 
L 1363 4581 
L 1363 0 
L 438 0 
z
" transform="scale(0.015625)"/>
       <path id="Arial-BoldMT-66" d="M 75 3319 
L 563 3319 
L 563 3569 
Q 563 3988 652 4194 
Q 741 4400 980 4529 
Q 1219 4659 1584 4659 
Q 1959 4659 2319 4547 
L 2200 3934 
Q 1991 3984 1797 3984 
Q 1606 3984 1523 3895 
Q 1441 3806 1441 3553 
L 1441 3319 
L 2097 3319 
L 2097 2628 
L 1441 2628 
L 1441 0 
L 563 0 
L 563 2628 
L 75 2628 
L 75 3319 
z
" transform="scale(0.015625)"/>
       <path id="Arial-BoldMT-65" d="M 2381 1056 
L 3256 909 
Q 3088 428 2723 176 
Q 2359 -75 1813 -75 
Q 947 -75 531 491 
Q 203 944 203 1634 
Q 203 2459 634 2926 
Q 1066 3394 1725 3394 
Q 2466 3394 2894 2905 
Q 3322 2416 3303 1406 
L 1103 1406 
Q 1113 1016 1316 798 
Q 1519 581 1822 581 
Q 2028 581 2168 693 
Q 2309 806 2381 1056 
z
M 2431 1944 
Q 2422 2325 2234 2523 
Q 2047 2722 1778 2722 
Q 1491 2722 1303 2513 
Q 1116 2303 1119 1944 
L 2431 1944 
z
" transform="scale(0.015625)"/>
       <path id="Arial-BoldMT-63" d="M 3353 2338 
L 2488 2181 
Q 2444 2441 2289 2572 
Q 2134 2703 1888 2703 
Q 1559 2703 1364 2476 
Q 1169 2250 1169 1719 
Q 1169 1128 1367 884 
Q 1566 641 1900 641 
Q 2150 641 2309 783 
Q 2469 925 2534 1272 
L 3397 1125 
Q 3263 531 2881 228 
Q 2500 -75 1859 -75 
Q 1131 -75 698 384 
Q 266 844 266 1656 
Q 266 2478 700 2936 
Q 1134 3394 1875 3394 
Q 2481 3394 2839 3133 
Q 3197 2872 3353 2338 
z
" transform="scale(0.015625)"/>
       <path id="Arial-BoldMT-2f" d="M -9 -78 
L 1125 4659 
L 1784 4659 
L 638 -78 
L -9 -78 
z
" transform="scale(0.015625)"/>
       <path id="Arial-BoldMT-72" d="M 1300 0 
L 422 0 
L 422 3319 
L 1238 3319 
L 1238 2847 
Q 1447 3181 1614 3287 
Q 1781 3394 1994 3394 
Q 2294 3394 2572 3228 
L 2300 2463 
Q 2078 2606 1888 2606 
Q 1703 2606 1575 2504 
Q 1447 2403 1373 2137 
Q 1300 1872 1300 1025 
L 1300 0 
z
" transform="scale(0.015625)"/>
       <path id="Arial-BoldMT-6d" d="M 394 3319 
L 1203 3319 
L 1203 2866 
Q 1638 3394 2238 3394 
Q 2556 3394 2790 3262 
Q 3025 3131 3175 2866 
Q 3394 3131 3647 3262 
Q 3900 3394 4188 3394 
Q 4553 3394 4806 3245 
Q 5059 3097 5184 2809 
Q 5275 2597 5275 2122 
L 5275 0 
L 4397 0 
L 4397 1897 
Q 4397 2391 4306 2534 
Q 4184 2722 3931 2722 
Q 3747 2722 3584 2609 
Q 3422 2497 3350 2280 
Q 3278 2063 3278 1594 
L 3278 0 
L 2400 0 
L 2400 1819 
Q 2400 2303 2353 2443 
Q 2306 2584 2207 2653 
Q 2109 2722 1941 2722 
Q 1738 2722 1575 2612 
Q 1413 2503 1342 2297 
Q 1272 2091 1272 1613 
L 1272 0 
L 394 0 
L 394 3319 
z
" transform="scale(0.015625)"/>
       <path id="Arial-BoldMT-62" d="M 422 0 
L 422 4581 
L 1300 4581 
L 1300 2931 
Q 1706 3394 2263 3394 
Q 2869 3394 3266 2955 
Q 3663 2516 3663 1694 
Q 3663 844 3258 384 
Q 2853 -75 2275 -75 
Q 1991 -75 1714 67 
Q 1438 209 1238 488 
L 1238 0 
L 422 0 
z
M 1294 1731 
Q 1294 1216 1456 969 
Q 1684 619 2063 619 
Q 2353 619 2558 867 
Q 2763 1116 2763 1650 
Q 2763 2219 2556 2470 
Q 2350 2722 2028 2722 
Q 1713 2722 1503 2476 
Q 1294 2231 1294 1731 
z
" transform="scale(0.015625)"/>
      </defs>
      <use xlink:href="#Arial-BoldMT-53"/>
      <use xlink:href="#Arial-BoldMT-41" transform="translate(66.699219 0)"/>
      <use xlink:href="#Arial-BoldMT-52" transform="translate(138.916016 0)"/>
      <use xlink:href="#Arial-BoldMT-53" transform="translate(211.132812 0)"/>
      <use xlink:href="#Arial-BoldMT-2d" transform="translate(277.832031 0)"/>
      <use xlink:href="#Arial-BoldMT-43" transform="translate(311.132812 0)"/>
      <use xlink:href="#Arial-BoldMT-6f" transform="translate(383.349609 0)"/>
      <use xlink:href="#Arial-BoldMT-56" transform="translate(444.433594 0)"/>
      <use xlink:href="#Arial-BoldMT-2d" transform="translate(505.632812 0)"/>
      <use xlink:href="#Arial-BoldMT-32" transform="translate(538.933594 0)"/>
      <use xlink:href="#Arial-BoldMT-20" transform="translate(594.548828 0)"/>
      <use xlink:href="#Arial-BoldMT-49" transform="translate(622.332031 0)"/>
      <use xlink:href="#Arial-BoldMT-6e" transform="translate(650.115234 0)"/>
      <use xlink:href="#Arial-BoldMT-66" transform="translate(711.199219 0)"/>
      <use xlink:href="#Arial-BoldMT-65" transform="translate(744.5 0)"/>
      <use xlink:href="#Arial-BoldMT-63" transform="translate(800.115234 0)"/>
      <use xlink:href="#Arial-BoldMT-74" transform="translate(855.730469 0)"/>
      <use xlink:href="#Arial-BoldMT-69" transform="translate(889.03125 0)"/>
      <use xlink:href="#Arial-BoldMT-6f" transform="translate(916.814453 0)"/>
      <use xlink:href="#Arial-BoldMT-6e" transform="translate(977.898438 0)"/>
      <use xlink:href="#Arial-BoldMT-20" transform="translate(1038.982422 0)"/>
      <use xlink:href="#Arial-BoldMT-2f" transform="translate(1066.765625 0)"/>
      <use xlink:href="#Arial-BoldMT-20" transform="translate(1094.548828 0)"/>
      <use xlink:href="#Arial-BoldMT-56" transform="translate(1122.332031 0)"/>
      <use xlink:href="#Arial-BoldMT-69" transform="translate(1187.28125 0)"/>
      <use xlink:href="#Arial-BoldMT-72" transform="translate(1215.064453 0)"/>
      <use xlink:href="#Arial-BoldMT-69" transform="translate(1253.980469 0)"/>
      <use xlink:href="#Arial-BoldMT-6f" transform="translate(1281.763672 0)"/>
      <use xlink:href="#Arial-BoldMT-6e" transform="translate(1342.847656 0)"/>
      <use xlink:href="#Arial-BoldMT-20" transform="translate(1403.931641 0)"/>
      <use xlink:href="#Arial-BoldMT-41" transform="translate(1427.964844 0)"/>
      <use xlink:href="#Arial-BoldMT-73" transform="translate(1500.181641 0)"/>
      <use xlink:href="#Arial-BoldMT-73" transform="translate(1555.796875 0)"/>
      <use xlink:href="#Arial-BoldMT-65" transform="translate(1611.412109 0)"/>
      <use xlink:href="#Arial-BoldMT-6d" transform="translate(1667.027344 0)"/>
      <use xlink:href="#Arial-BoldMT-62" transform="translate(1755.943359 0)"/>
      <use xlink:href="#Arial-BoldMT-6c" transform="translate(1817.027344 0)"/>
      <use xlink:href="#Arial-BoldMT-79" transform="translate(1844.810547 0)"/>
     </g>
    </g>
   </g>
   <g id="text_4">
    <!-- Protein-Pathway Bipartite Interaction Network Map -->
    <g style="fill: #f1f5f9" transform="translate(141.85125 15.789375) scale(0.12 -0.12)">
     <defs>
      <path id="Arial-BoldMT-4d" d="M 453 0 
L 453 4581 
L 1838 4581 
L 2669 1456 
L 3491 4581 
L 4878 4581 
L 4878 0 
L 4019 0 
L 4019 3606 
L 3109 0 
L 2219 0 
L 1313 3606 
L 1313 0 
L 453 0 
z
" transform="scale(0.015625)"/>
     </defs>
     <use xlink:href="#Arial-BoldMT-50"/>
     <use xlink:href="#Arial-BoldMT-72" transform="translate(66.699219 0)"/>
     <use xlink:href="#Arial-BoldMT-6f" transform="translate(105.615234 0)"/>
     <use xlink:href="#Arial-BoldMT-74" transform="translate(166.699219 0)"/>
     <use xlink:href="#Arial-BoldMT-65" transform="translate(200 0)"/>
     <use xlink:href="#Arial-BoldMT-69" transform="translate(255.615234 0)"/>
     <use xlink:href="#Arial-BoldMT-6e" transform="translate(283.398438 0)"/>
     <use xlink:href="#Arial-BoldMT-2d" transform="translate(344.482422 0)"/>
     <use xlink:href="#Arial-BoldMT-50" transform="translate(377.783203 0)"/>
     <use xlink:href="#Arial-BoldMT-61" transform="translate(444.482422 0)"/>
     <use xlink:href="#Arial-BoldMT-74" transform="translate(500.097656 0)"/>
     <use xlink:href="#Arial-BoldMT-68" transform="translate(533.398438 0)"/>
     <use xlink:href="#Arial-BoldMT-77" transform="translate(594.482422 0)"/>
     <use xlink:href="#Arial-BoldMT-61" transform="translate(672.265625 0)"/>
     <use xlink:href="#Arial-BoldMT-79" transform="translate(727.880859 0)"/>
     <use xlink:href="#Arial-BoldMT-20" transform="translate(783.496094 0)"/>
     <use xlink:href="#Arial-BoldMT-42" transform="translate(811.279297 0)"/>
     <use xlink:href="#Arial-BoldMT-69" transform="translate(883.496094 0)"/>
     <use xlink:href="#Arial-BoldMT-70" transform="translate(911.279297 0)"/>
     <use xlink:href="#Arial-BoldMT-61" transform="translate(972.363281 0)"/>
     <use xlink:href="#Arial-BoldMT-72" transform="translate(1027.978516 0)"/>
     <use xlink:href="#Arial-BoldMT-74" transform="translate(1066.894531 0)"/>
     <use xlink:href="#Arial-BoldMT-69" transform="translate(1100.195312 0)"/>
     <use xlink:href="#Arial-BoldMT-74" transform="translate(1127.978516 0)"/>
     <use xlink:href="#Arial-BoldMT-65" transform="translate(1161.279297 0)"/>
     <use xlink:href="#Arial-BoldMT-20" transform="translate(1216.894531 0)"/>
     <use xlink:href="#Arial-BoldMT-49" transform="translate(1244.677734 0)"/>
     <use xlink:href="#Arial-BoldMT-6e" transform="translate(1272.460938 0)"/>
     <use xlink:href="#Arial-BoldMT-74" transform="translate(1333.544922 0)"/>
     <use xlink:href="#Arial-BoldMT-65" transform="translate(1366.845703 0)"/>
     <use xlink:href="#Arial-BoldMT-72" transform="translate(1422.460938 0)"/>
     <use xlink:href="#Arial-BoldMT-61" transform="translate(1461.376953 0)"/>
     <use xlink:href="#Arial-BoldMT-63" transform="translate(1516.992188 0)"/>
     <use xlink:href="#Arial-BoldMT-74" transform="translate(1572.607422 0)"/>
     <use xlink:href="#Arial-BoldMT-69" transform="translate(1605.908203 0)"/>
     <use xlink:href="#Arial-BoldMT-6f" transform="translate(1633.691406 0)"/>
     <use xlink:href="#Arial-BoldMT-6e" transform="translate(1694.775391 0)"/>
     <use xlink:href="#Arial-BoldMT-20" transform="translate(1755.859375 0)"/>
     <use xlink:href="#Arial-BoldMT-4e" transform="translate(1783.642578 0)"/>
     <use xlink:href="#Arial-BoldMT-65" transform="translate(1855.859375 0)"/>
     <use xlink:href="#Arial-BoldMT-74" transform="translate(1911.474609 0)"/>
     <use xlink:href="#Arial-BoldMT-77" transform="translate(1944.775391 0)"/>
     <use xlink:href="#Arial-BoldMT-6f" transform="translate(2022.558594 0)"/>
     <use xlink:href="#Arial-BoldMT-72" transform="translate(2083.642578 0)"/>
     <use xlink:href="#Arial-BoldMT-6b" transform="translate(2122.558594 0)"/>
     <use xlink:href="#Arial-BoldMT-20" transform="translate(2178.173828 0)"/>
     <use xlink:href="#Arial-BoldMT-4d" transform="translate(2205.957031 0)"/>
     <use xlink:href="#Arial-BoldMT-61" transform="translate(2289.257812 0)"/>
     <use xlink:href="#Arial-BoldMT-70" transform="translate(2344.873047 0)"/>
    </g>
    <!-- (Links between predicted viral proteins and host molecular pathways) -->
    <g style="fill: #f1f5f9" transform="translate(87.169688 28.79775) scale(0.12 -0.12)">
     <defs>
      <path id="Arial-BoldMT-28" d="M 1916 -1347 
L 1313 -1347 
Q 834 -625 584 153 
Q 334 931 334 1659 
Q 334 2563 644 3369 
Q 913 4069 1325 4659 
L 1925 4659 
Q 1497 3713 1336 3048 
Q 1175 2384 1175 1641 
Q 1175 1128 1270 590 
Q 1366 53 1531 -431 
Q 1641 -750 1916 -1347 
z
" transform="scale(0.015625)"/>
      <path id="Arial-BoldMT-4c" d="M 491 0 
L 491 4544 
L 1416 4544 
L 1416 772 
L 3716 772 
L 3716 0 
L 491 0 
z
" transform="scale(0.015625)"/>
      <path id="Arial-BoldMT-64" d="M 3503 0 
L 2688 0 
L 2688 488 
Q 2484 203 2207 64 
Q 1931 -75 1650 -75 
Q 1078 -75 670 386 
Q 263 847 263 1672 
Q 263 2516 659 2955 
Q 1056 3394 1663 3394 
Q 2219 3394 2625 2931 
L 2625 4581 
L 3503 4581 
L 3503 0 
z
M 1159 1731 
Q 1159 1200 1306 963 
Q 1519 619 1900 619 
Q 2203 619 2415 876 
Q 2628 1134 2628 1647 
Q 2628 2219 2422 2470 
Q 2216 2722 1894 2722 
Q 1581 2722 1370 2473 
Q 1159 2225 1159 1731 
z
" transform="scale(0.015625)"/>
      <path id="Arial-BoldMT-76" d="M 1372 0 
L 34 3319 
L 956 3319 
L 1581 1625 
L 1763 1059 
Q 1834 1275 1853 1344 
Q 1897 1484 1947 1625 
L 2578 3319 
L 3481 3319 
L 2163 0 
L 1372 0 
z
" transform="scale(0.015625)"/>
      <path id="Arial-BoldMT-75" d="M 2644 0 
L 2644 497 
Q 2463 231 2167 78 
Q 1872 -75 1544 -75 
Q 1209 -75 943 72 
Q 678 219 559 484 
Q 441 750 441 1219 
L 441 3319 
L 1319 3319 
L 1319 1794 
Q 1319 1094 1367 936 
Q 1416 778 1544 686 
Q 1672 594 1869 594 
Q 2094 594 2272 717 
Q 2450 841 2515 1023 
Q 2581 1206 2581 1919 
L 2581 3319 
L 3459 3319 
L 3459 0 
L 2644 0 
z
" transform="scale(0.015625)"/>
      <path id="Arial-BoldMT-29" d="M 216 -1347 
Q 475 -791 581 -494 
Q 688 -197 778 190 
Q 869 578 912 926 
Q 956 1275 956 1641 
Q 956 2384 797 3048 
Q 638 3713 209 4659 
L 806 4659 
Q 1278 3988 1539 3234 
Q 1800 2481 1800 1706 
Q 1800 1053 1594 306 
Q 1359 -531 822 -1347 
L 216 -1347 
z
" transform="scale(0.015625)"/>
     </defs>
     <use xlink:href="#Arial-BoldMT-28"/>
     <use xlink:href="#Arial-BoldMT-4c" transform="translate(33.300781 0)"/>
     <use xlink:href="#Arial-BoldMT-69" transform="translate(94.384766 0)"/>
     <use xlink:href="#Arial-BoldMT-6e" transform="translate(122.167969 0)"/>
     <use xlink:href="#Arial-BoldMT-6b" transform="translate(183.251953 0)"/>
     <use xlink:href="#Arial-BoldMT-73" transform="translate(238.867188 0)"/>
     <use xlink:href="#Arial-BoldMT-20" transform="translate(294.482422 0)"/>
     <use xlink:href="#Arial-BoldMT-62" transform="translate(322.265625 0)"/>
     <use xlink:href="#Arial-BoldMT-65" transform="translate(383.349609 0)"/>
     <use xlink:href="#Arial-BoldMT-74" transform="translate(438.964844 0)"/>
     <use xlink:href="#Arial-BoldMT-77" transform="translate(472.265625 0)"/>
     <use xlink:href="#Arial-BoldMT-65" transform="translate(550.048828 0)"/>
     <use xlink:href="#Arial-BoldMT-65" transform="translate(605.664062 0)"/>
     <use xlink:href="#Arial-BoldMT-6e" transform="translate(661.279297 0)"/>
     <use xlink:href="#Arial-BoldMT-20" transform="translate(722.363281 0)"/>
     <use xlink:href="#Arial-BoldMT-70" transform="translate(750.146484 0)"/>
     <use xlink:href="#Arial-BoldMT-72" transform="translate(811.230469 0)"/>
     <use xlink:href="#Arial-BoldMT-65" transform="translate(850.146484 0)"/>
     <use xlink:href="#Arial-BoldMT-64" transform="translate(905.761719 0)"/>
     <use xlink:href="#Arial-BoldMT-69" transform="translate(966.845703 0)"/>
     <use xlink:href="#Arial-BoldMT-63" transform="translate(994.628906 0)"/>
     <use xlink:href="#Arial-BoldMT-74" transform="translate(1050.244141 0)"/>
     <use xlink:href="#Arial-BoldMT-65" transform="translate(1083.544922 0)"/>
     <use xlink:href="#Arial-BoldMT-64" transform="translate(1139.160156 0)"/>
     <use xlink:href="#Arial-BoldMT-20" transform="translate(1200.244141 0)"/>
     <use xlink:href="#Arial-BoldMT-76" transform="translate(1228.027344 0)"/>
     <use xlink:href="#Arial-BoldMT-69" transform="translate(1283.642578 0)"/>
     <use xlink:href="#Arial-BoldMT-72" transform="translate(1311.425781 0)"/>
     <use xlink:href="#Arial-BoldMT-61" transform="translate(1350.341797 0)"/>
     <use xlink:href="#Arial-BoldMT-6c" transform="translate(1405.957031 0)"/>
     <use xlink:href="#Arial-BoldMT-20" transform="translate(1433.740234 0)"/>
     <use xlink:href="#Arial-BoldMT-70" transform="translate(1461.523438 0)"/>
     <use xlink:href="#Arial-BoldMT-72" transform="translate(1522.607422 0)"/>
     <use xlink:href="#Arial-BoldMT-6f" transform="translate(1561.523438 0)"/>
     <use xlink:href="#Arial-BoldMT-74" transform="translate(1622.607422 0)"/>
     <use xlink:href="#Arial-BoldMT-65" transform="translate(1655.908203 0)"/>
     <use xlink:href="#Arial-BoldMT-69" transform="translate(1711.523438 0)"/>
     <use xlink:href="#Arial-BoldMT-6e" transform="translate(1739.306641 0)"/>
     <use xlink:href="#Arial-BoldMT-73" transform="translate(1800.390625 0)"/>
     <use xlink:href="#Arial-BoldMT-20" transform="translate(1856.005859 0)"/>
     <use xlink:href="#Arial-BoldMT-61" transform="translate(1883.789062 0)"/>
     <use xlink:href="#Arial-BoldMT-6e" transform="translate(1939.404297 0)"/>
     <use xlink:href="#Arial-BoldMT-64" transform="translate(2000.488281 0)"/>
     <use xlink:href="#Arial-BoldMT-20" transform="translate(2061.572266 0)"/>
     <use xlink:href="#Arial-BoldMT-68" transform="translate(2089.355469 0)"/>
     <use xlink:href="#Arial-BoldMT-6f" transform="translate(2150.439453 0)"/>
     <use xlink:href="#Arial-BoldMT-73" transform="translate(2211.523438 0)"/>
     <use xlink:href="#Arial-BoldMT-74" transform="translate(2267.138672 0)"/>
     <use xlink:href="#Arial-BoldMT-20" transform="translate(2300.439453 0)"/>
     <use xlink:href="#Arial-BoldMT-6d" transform="translate(2328.222656 0)"/>
     <use xlink:href="#Arial-BoldMT-6f" transform="translate(2417.138672 0)"/>
     <use xlink:href="#Arial-BoldMT-6c" transform="translate(2478.222656 0)"/>
     <use xlink:href="#Arial-BoldMT-65" transform="translate(2506.005859 0)"/>
     <use xlink:href="#Arial-BoldMT-63" transform="translate(2561.621094 0)"/>
     <use xlink:href="#Arial-BoldMT-75" transform="translate(2617.236328 0)"/>
     <use xlink:href="#Arial-BoldMT-6c" transform="translate(2678.320312 0)"/>
     <use xlink:href="#Arial-BoldMT-61" transform="translate(2706.103516 0)"/>
     <use xlink:href="#Arial-BoldMT-72" transform="translate(2761.71875 0)"/>
     <use xlink:href="#Arial-BoldMT-20" transform="translate(2800.634766 0)"/>
     <use xlink:href="#Arial-BoldMT-70" transform="translate(2828.417969 0)"/>
     <use xlink:href="#Arial-BoldMT-61" transform="translate(2889.501953 0)"/>
     <use xlink:href="#Arial-BoldMT-74" transform="translate(2945.117188 0)"/>
     <use xlink:href="#Arial-BoldMT-68" transform="translate(2978.417969 0)"/>
     <use xlink:href="#Arial-BoldMT-77" transform="translate(3039.501953 0)"/>
     <use xlink:href="#Arial-BoldMT-61" transform="translate(3117.285156 0)"/>
     <use xlink:href="#Arial-BoldMT-79" transform="translate(3172.900391 0)"/>
     <use xlink:href="#Arial-BoldMT-73" transform="translate(3228.515625 0)"/>
     <use xlink:href="#Arial-BoldMT-29" transform="translate(3284.130859 0)"/>
    </g>
   </g>
   <g id="legend_1">
    <g id="patch_2">
     <path d="M 361.546875 81.779937 
L 558.9 81.779937 
Q 560.7 81.779937 560.7 79.979937 
L 560.7 55.09775 
Q 560.7 53.29775 558.9 53.29775 
L 361.546875 53.29775 
Q 359.746875 53.29775 359.746875 55.09775 
L 359.746875 79.979937 
Q 359.746875 81.779937 361.546875 81.779937 
z
" style="fill: #0f172a; opacity: 0.8; stroke: #1e293b; stroke-linejoin: miter"/>
    </g>
    <g id="patch_3">
     <path d="M 363.346875 63.339781 
L 381.346875 63.339781 
L 381.346875 57.039781 
L 363.346875 57.039781 
z
" style="fill: #38bdf8; stroke: #38bdf8; stroke-linejoin: miter"/>
    </g>
    <g id="text_5">
     <!-- Viral Protein Homology Matches -->
     <g style="fill: #cbd5e1" transform="translate(388.546875 63.339781) scale(0.09 -0.09)">
      <defs>
       <path id="ArialMT-56" d="M 1803 0 
L 28 4581 
L 684 4581 
L 1875 1253 
Q 2019 853 2116 503 
Q 2222 878 2363 1253 
L 3600 4581 
L 4219 4581 
L 2425 0 
L 1803 0 
z
" transform="scale(0.015625)"/>
       <path id="ArialMT-69" d="M 425 3934 
L 425 4581 
L 988 4581 
L 988 3934 
L 425 3934 
z
M 425 0 
L 425 3319 
L 988 3319 
L 988 0 
L 425 0 
z
" transform="scale(0.015625)"/>
       <path id="ArialMT-72" d="M 416 0 
L 416 3319 
L 922 3319 
L 922 2816 
Q 1116 3169 1280 3281 
Q 1444 3394 1641 3394 
Q 1925 3394 2219 3213 
L 2025 2691 
Q 1819 2813 1613 2813 
Q 1428 2813 1281 2702 
Q 1134 2591 1072 2394 
Q 978 2094 978 1738 
L 978 0 
L 416 0 
z
" transform="scale(0.015625)"/>
       <path id="ArialMT-61" d="M 2588 409 
Q 2275 144 1986 34 
Q 1697 -75 1366 -75 
Q 819 -75 525 192 
Q 231 459 231 875 
Q 231 1119 342 1320 
Q 453 1522 633 1644 
Q 813 1766 1038 1828 
Q 1203 1872 1538 1913 
Q 2219 1994 2541 2106 
Q 2544 2222 2544 2253 
Q 2544 2597 2384 2738 
Q 2169 2928 1744 2928 
Q 1347 2928 1158 2789 
Q 969 2650 878 2297 
L 328 2372 
Q 403 2725 575 2942 
Q 747 3159 1072 3276 
Q 1397 3394 1825 3394 
Q 2250 3394 2515 3294 
Q 2781 3194 2906 3042 
Q 3031 2891 3081 2659 
Q 3109 2516 3109 2141 
L 3109 1391 
Q 3109 606 3145 398 
Q 3181 191 3288 0 
L 2700 0 
Q 2613 175 2588 409 
z
M 2541 1666 
Q 2234 1541 1622 1453 
Q 1275 1403 1131 1340 
Q 988 1278 909 1158 
Q 831 1038 831 891 
Q 831 666 1001 516 
Q 1172 366 1500 366 
Q 1825 366 2078 508 
Q 2331 650 2450 897 
Q 2541 1088 2541 1459 
L 2541 1666 
z
" transform="scale(0.015625)"/>
       <path id="ArialMT-6c" d="M 409 0 
L 409 4581 
L 972 4581 
L 972 0 
L 409 0 
z
" transform="scale(0.015625)"/>
       <path id="ArialMT-20" transform="scale(0.015625)"/>
       <path id="ArialMT-50" d="M 494 0 
L 494 4581 
L 2222 4581 
Q 2678 4581 2919 4538 
Q 3256 4481 3484 4323 
Q 3713 4166 3852 3881 
Q 3991 3597 3991 3256 
Q 3991 2672 3619 2267 
Q 3247 1863 2275 1863 
L 1100 1863 
L 1100 0 
L 494 0 
z
M 1100 2403 
L 2284 2403 
Q 2872 2403 3119 2622 
Q 3366 2841 3366 3238 
Q 3366 3525 3220 3729 
Q 3075 3934 2838 4000 
Q 2684 4041 2272 4041 
L 1100 4041 
L 1100 2403 
z
" transform="scale(0.015625)"/>
       <path id="ArialMT-6f" d="M 213 1659 
Q 213 2581 725 3025 
Q 1153 3394 1769 3394 
Q 2453 3394 2887 2945 
Q 3322 2497 3322 1706 
Q 3322 1066 3130 698 
Q 2938 331 2570 128 
Q 2203 -75 1769 -75 
Q 1072 -75 642 372 
Q 213 819 213 1659 
z
M 791 1659 
Q 791 1022 1069 705 
Q 1347 388 1769 388 
Q 2188 388 2466 706 
Q 2744 1025 2744 1678 
Q 2744 2294 2464 2611 
Q 2184 2928 1769 2928 
Q 1347 2928 1069 2612 
Q 791 2297 791 1659 
z
" transform="scale(0.015625)"/>
       <path id="ArialMT-74" d="M 1650 503 
L 1731 6 
Q 1494 -44 1306 -44 
Q 1000 -44 831 53 
Q 663 150 594 308 
Q 525 466 525 972 
L 525 2881 
L 113 2881 
L 113 3319 
L 525 3319 
L 525 4141 
L 1084 4478 
L 1084 3319 
L 1650 3319 
L 1650 2881 
L 1084 2881 
L 1084 941 
Q 1084 700 1114 631 
Q 1144 563 1211 522 
Q 1278 481 1403 481 
Q 1497 481 1650 503 
z
" transform="scale(0.015625)"/>
       <path id="ArialMT-65" d="M 2694 1069 
L 3275 997 
Q 3138 488 2766 206 
Q 2394 -75 1816 -75 
Q 1088 -75 661 373 
Q 234 822 234 1631 
Q 234 2469 665 2931 
Q 1097 3394 1784 3394 
Q 2450 3394 2872 2941 
Q 3294 2488 3294 1666 
Q 3294 1616 3291 1516 
L 816 1516 
Q 847 969 1125 678 
Q 1403 388 1819 388 
Q 2128 388 2347 550 
Q 2566 713 2694 1069 
z
M 847 1978 
L 2700 1978 
Q 2663 2397 2488 2606 
Q 2219 2931 1791 2931 
Q 1403 2931 1139 2672 
Q 875 2413 847 1978 
z
" transform="scale(0.015625)"/>
       <path id="ArialMT-6e" d="M 422 0 
L 422 3319 
L 928 3319 
L 928 2847 
Q 1294 3394 1984 3394 
Q 2284 3394 2536 3286 
Q 2788 3178 2913 3003 
Q 3038 2828 3088 2588 
Q 3119 2431 3119 2041 
L 3119 0 
L 2556 0 
L 2556 2019 
Q 2556 2363 2490 2533 
Q 2425 2703 2258 2804 
Q 2091 2906 1866 2906 
Q 1506 2906 1245 2678 
Q 984 2450 984 1813 
L 984 0 
L 422 0 
z
" transform="scale(0.015625)"/>
       <path id="ArialMT-48" d="M 513 0 
L 513 4581 
L 1119 4581 
L 1119 2700 
L 3500 2700 
L 3500 4581 
L 4106 4581 
L 4106 0 
L 3500 0 
L 3500 2159 
L 1119 2159 
L 1119 0 
L 513 0 
z
" transform="scale(0.015625)"/>
       <path id="ArialMT-6d" d="M 422 0 
L 422 3319 
L 925 3319 
L 925 2853 
Q 1081 3097 1340 3245 
Q 1600 3394 1931 3394 
Q 2300 3394 2536 3241 
Q 2772 3088 2869 2813 
Q 3263 3394 3894 3394 
Q 4388 3394 4653 3120 
Q 4919 2847 4919 2278 
L 4919 0 
L 4359 0 
L 4359 2091 
Q 4359 2428 4304 2576 
Q 4250 2725 4106 2815 
Q 3963 2906 3769 2906 
Q 3419 2906 3187 2673 
Q 2956 2441 2956 1928 
L 2956 0 
L 2394 0 
L 2394 2156 
Q 2394 2531 2256 2718 
Q 2119 2906 1806 2906 
Q 1569 2906 1367 2781 
Q 1166 2656 1075 2415 
Q 984 2175 984 1722 
L 984 0 
L 422 0 
z
" transform="scale(0.015625)"/>
       <path id="ArialMT-67" d="M 319 -275 
L 866 -356 
Q 900 -609 1056 -725 
Q 1266 -881 1628 -881 
Q 2019 -881 2231 -725 
Q 2444 -569 2519 -288 
Q 2563 -116 2559 434 
Q 2191 0 1641 0 
Q 956 0 581 494 
Q 206 988 206 1678 
Q 206 2153 378 2554 
Q 550 2956 876 3175 
Q 1203 3394 1644 3394 
Q 2231 3394 2613 2919 
L 2613 3319 
L 3131 3319 
L 3131 450 
Q 3131 -325 2973 -648 
Q 2816 -972 2473 -1159 
Q 2131 -1347 1631 -1347 
Q 1038 -1347 672 -1080 
Q 306 -813 319 -275 
z
M 784 1719 
Q 784 1066 1043 766 
Q 1303 466 1694 466 
Q 2081 466 2343 764 
Q 2606 1063 2606 1700 
Q 2606 2309 2336 2618 
Q 2066 2928 1684 2928 
Q 1309 2928 1046 2623 
Q 784 2319 784 1719 
z
" transform="scale(0.015625)"/>
       <path id="ArialMT-79" d="M 397 -1278 
L 334 -750 
Q 519 -800 656 -800 
Q 844 -800 956 -737 
Q 1069 -675 1141 -563 
Q 1194 -478 1313 -144 
Q 1328 -97 1363 -6 
L 103 3319 
L 709 3319 
L 1400 1397 
Q 1534 1031 1641 628 
Q 1738 1016 1872 1384 
L 2581 3319 
L 3144 3319 
L 1881 -56 
Q 1678 -603 1566 -809 
Q 1416 -1088 1222 -1217 
Q 1028 -1347 759 -1347 
Q 597 -1347 397 -1278 
z
" transform="scale(0.015625)"/>
       <path id="ArialMT-4d" d="M 475 0 
L 475 4581 
L 1388 4581 
L 2472 1338 
Q 2622 884 2691 659 
Q 2769 909 2934 1394 
L 4031 4581 
L 4847 4581 
L 4847 0 
L 4263 0 
L 4263 3834 
L 2931 0 
L 2384 0 
L 1059 3900 
L 1059 0 
L 475 0 
z
" transform="scale(0.015625)"/>
       <path id="ArialMT-63" d="M 2588 1216 
L 3141 1144 
Q 3050 572 2676 248 
Q 2303 -75 1759 -75 
Q 1078 -75 664 370 
Q 250 816 250 1647 
Q 250 2184 428 2587 
Q 606 2991 970 3192 
Q 1334 3394 1763 3394 
Q 2303 3394 2647 3120 
Q 2991 2847 3088 2344 
L 2541 2259 
Q 2463 2594 2264 2762 
Q 2066 2931 1784 2931 
Q 1359 2931 1093 2626 
Q 828 2322 828 1663 
Q 828 994 1084 691 
Q 1341 388 1753 388 
Q 2084 388 2306 591 
Q 2528 794 2588 1216 
z
" transform="scale(0.015625)"/>
       <path id="ArialMT-68" d="M 422 0 
L 422 4581 
L 984 4581 
L 984 2938 
Q 1378 3394 1978 3394 
Q 2347 3394 2619 3248 
Q 2891 3103 3008 2847 
Q 3125 2591 3125 2103 
L 3125 0 
L 2563 0 
L 2563 2103 
Q 2563 2525 2380 2717 
Q 2197 2909 1863 2909 
Q 1613 2909 1392 2779 
Q 1172 2650 1078 2428 
Q 984 2206 984 1816 
L 984 0 
L 422 0 
z
" transform="scale(0.015625)"/>
       <path id="ArialMT-73" d="M 197 991 
L 753 1078 
Q 800 744 1014 566 
Q 1228 388 1613 388 
Q 2000 388 2187 545 
Q 2375 703 2375 916 
Q 2375 1106 2209 1216 
Q 2094 1291 1634 1406 
Q 1016 1563 777 1677 
Q 538 1791 414 1992 
Q 291 2194 291 2438 
Q 291 2659 392 2848 
Q 494 3038 669 3163 
Q 800 3259 1026 3326 
Q 1253 3394 1513 3394 
Q 1903 3394 2198 3281 
Q 2494 3169 2634 2976 
Q 2775 2784 2828 2463 
L 2278 2388 
Q 2241 2644 2061 2787 
Q 1881 2931 1553 2931 
Q 1166 2931 1000 2803 
Q 834 2675 834 2503 
Q 834 2394 903 2306 
Q 972 2216 1119 2156 
Q 1203 2125 1616 2013 
Q 2213 1853 2448 1751 
Q 2684 1650 2818 1456 
Q 2953 1263 2953 975 
Q 2953 694 2789 445 
Q 2625 197 2315 61 
Q 2006 -75 1616 -75 
Q 969 -75 630 194 
Q 291 463 197 991 
z
" transform="scale(0.015625)"/>
      </defs>
      <use xlink:href="#ArialMT-56"/>
      <use xlink:href="#ArialMT-69" transform="translate(64.949219 0)"/>
      <use xlink:href="#ArialMT-72" transform="translate(87.166016 0)"/>
      <use xlink:href="#ArialMT-61" transform="translate(120.466797 0)"/>
      <use xlink:href="#ArialMT-6c" transform="translate(176.082031 0)"/>
      <use xlink:href="#ArialMT-20" transform="translate(198.298828 0)"/>
      <use xlink:href="#ArialMT-50" transform="translate(226.082031 0)"/>
      <use xlink:href="#ArialMT-72" transform="translate(292.78125 0)"/>
      <use xlink:href="#ArialMT-6f" transform="translate(326.082031 0)"/>
      <use xlink:href="#ArialMT-74" transform="translate(381.697266 0)"/>
      <use xlink:href="#ArialMT-65" transform="translate(409.480469 0)"/>
      <use xlink:href="#ArialMT-69" transform="translate(465.095703 0)"/>
      <use xlink:href="#ArialMT-6e" transform="translate(487.3125 0)"/>
      <use xlink:href="#ArialMT-20" transform="translate(542.927734 0)"/>
      <use xlink:href="#ArialMT-48" transform="translate(570.710938 0)"/>
      <use xlink:href="#ArialMT-6f" transform="translate(642.927734 0)"/>
      <use xlink:href="#ArialMT-6d" transform="translate(698.542969 0)"/>
      <use xlink:href="#ArialMT-6f" transform="translate(781.84375 0)"/>
      <use xlink:href="#ArialMT-6c" transform="translate(837.458984 0)"/>
      <use xlink:href="#ArialMT-6f" transform="translate(859.675781 0)"/>
      <use xlink:href="#ArialMT-67" transform="translate(915.291016 0)"/>
      <use xlink:href="#ArialMT-79" transform="translate(970.90625 0)"/>
      <use xlink:href="#ArialMT-20" transform="translate(1020.90625 0)"/>
      <use xlink:href="#ArialMT-4d" transform="translate(1048.689453 0)"/>
      <use xlink:href="#ArialMT-61" transform="translate(1131.990234 0)"/>
      <use xlink:href="#ArialMT-74" transform="translate(1187.605469 0)"/>
      <use xlink:href="#ArialMT-63" transform="translate(1215.388672 0)"/>
      <use xlink:href="#ArialMT-68" transform="translate(1265.388672 0)"/>
      <use xlink:href="#ArialMT-65" transform="translate(1321.003906 0)"/>
      <use xlink:href="#ArialMT-73" transform="translate(1376.619141 0)"/>
     </g>
    </g>
    <g id="patch_4">
     <path d="M 363.346875 76.285719 
L 381.346875 76.285719 
L 381.346875 69.985719 
L 363.346875 69.985719 
z
" style="fill: #c084fc; stroke: #c084fc; stroke-linejoin: miter"/>
    </g>
    <g id="text_6">
     <!-- Implicated Host Pathways (Degree Hijack) -->
     <g style="fill: #cbd5e1" transform="translate(388.546875 76.285719) scale(0.09 -0.09)">
      <defs>
       <path id="ArialMT-49" d="M 597 0 
L 597 4581 
L 1203 4581 
L 1203 0 
L 597 0 
z
" transform="scale(0.015625)"/>
       <path id="ArialMT-70" d="M 422 -1272 
L 422 3319 
L 934 3319 
L 934 2888 
Q 1116 3141 1344 3267 
Q 1572 3394 1897 3394 
Q 2322 3394 2647 3175 
Q 2972 2956 3137 2557 
Q 3303 2159 3303 1684 
Q 3303 1175 3120 767 
Q 2938 359 2589 142 
Q 2241 -75 1856 -75 
Q 1575 -75 1351 44 
Q 1128 163 984 344 
L 984 -1272 
L 422 -1272 
z
M 931 1641 
Q 931 1000 1190 694 
Q 1450 388 1819 388 
Q 2194 388 2461 705 
Q 2728 1022 2728 1688 
Q 2728 2322 2467 2637 
Q 2206 2953 1844 2953 
Q 1484 2953 1207 2617 
Q 931 2281 931 1641 
z
" transform="scale(0.015625)"/>
       <path id="ArialMT-64" d="M 2575 0 
L 2575 419 
Q 2259 -75 1647 -75 
Q 1250 -75 917 144 
Q 584 363 401 755 
Q 219 1147 219 1656 
Q 219 2153 384 2558 
Q 550 2963 881 3178 
Q 1213 3394 1622 3394 
Q 1922 3394 2156 3267 
Q 2391 3141 2538 2938 
L 2538 4581 
L 3097 4581 
L 3097 0 
L 2575 0 
z
M 797 1656 
Q 797 1019 1065 703 
Q 1334 388 1700 388 
Q 2069 388 2326 689 
Q 2584 991 2584 1609 
Q 2584 2291 2321 2609 
Q 2059 2928 1675 2928 
Q 1300 2928 1048 2622 
Q 797 2316 797 1656 
z
" transform="scale(0.015625)"/>
       <path id="ArialMT-77" d="M 1034 0 
L 19 3319 
L 600 3319 
L 1128 1403 
L 1325 691 
Q 1338 744 1497 1375 
L 2025 3319 
L 2603 3319 
L 3100 1394 
L 3266 759 
L 3456 1400 
L 4025 3319 
L 4572 3319 
L 3534 0 
L 2950 0 
L 2422 1988 
L 2294 2553 
L 1622 0 
L 1034 0 
z
" transform="scale(0.015625)"/>
       <path id="ArialMT-28" d="M 1497 -1347 
Q 1031 -759 709 28 
Q 388 816 388 1659 
Q 388 2403 628 3084 
Q 909 3875 1497 4659 
L 1900 4659 
Q 1522 4009 1400 3731 
Q 1209 3300 1100 2831 
Q 966 2247 966 1656 
Q 966 153 1900 -1347 
L 1497 -1347 
z
" transform="scale(0.015625)"/>
       <path id="ArialMT-44" d="M 494 0 
L 494 4581 
L 2072 4581 
Q 2606 4581 2888 4516 
Q 3281 4425 3559 4188 
Q 3922 3881 4101 3404 
Q 4281 2928 4281 2316 
Q 4281 1794 4159 1391 
Q 4038 988 3847 723 
Q 3656 459 3429 307 
Q 3203 156 2883 78 
Q 2563 0 2147 0 
L 494 0 
z
M 1100 541 
L 2078 541 
Q 2531 541 2789 625 
Q 3047 709 3200 863 
Q 3416 1078 3536 1442 
Q 3656 1806 3656 2325 
Q 3656 3044 3420 3430 
Q 3184 3816 2847 3947 
Q 2603 4041 2063 4041 
L 1100 4041 
L 1100 541 
z
" transform="scale(0.015625)"/>
       <path id="ArialMT-6a" d="M 419 3928 
L 419 4581 
L 981 4581 
L 981 3928 
L 419 3928 
z
M -294 -1288 
L -188 -809 
Q -19 -853 78 -853 
Q 250 -853 334 -739 
Q 419 -625 419 -169 
L 419 3319 
L 981 3319 
L 981 -181 
Q 981 -794 822 -1034 
Q 619 -1347 147 -1347 
Q -81 -1347 -294 -1288 
z
" transform="scale(0.015625)"/>
       <path id="ArialMT-6b" d="M 425 0 
L 425 4581 
L 988 4581 
L 988 1969 
L 2319 3319 
L 3047 3319 
L 1778 2088 
L 3175 0 
L 2481 0 
L 1384 1697 
L 988 1316 
L 988 0 
L 425 0 
z
" transform="scale(0.015625)"/>
       <path id="ArialMT-29" d="M 791 -1347 
L 388 -1347 
Q 1322 153 1322 1656 
Q 1322 2244 1188 2822 
Q 1081 3291 891 3722 
Q 769 4003 388 4659 
L 791 4659 
Q 1378 3875 1659 3084 
Q 1900 2403 1900 1659 
Q 1900 816 1576 28 
Q 1253 -759 791 -1347 
z
" transform="scale(0.015625)"/>
      </defs>
      <use xlink:href="#ArialMT-49"/>
      <use xlink:href="#ArialMT-6d" transform="translate(27.783203 0)"/>
      <use xlink:href="#ArialMT-70" transform="translate(111.083984 0)"/>
      <use xlink:href="#ArialMT-6c" transform="translate(166.699219 0)"/>
      <use xlink:href="#ArialMT-69" transform="translate(188.916016 0)"/>
      <use xlink:href="#ArialMT-63" transform="translate(211.132812 0)"/>
      <use xlink:href="#ArialMT-61" transform="translate(261.132812 0)"/>
      <use xlink:href="#ArialMT-74" transform="translate(316.748047 0)"/>
      <use xlink:href="#ArialMT-65" transform="translate(344.53125 0)"/>
      <use xlink:href="#ArialMT-64" transform="translate(400.146484 0)"/>
      <use xlink:href="#ArialMT-20" transform="translate(455.761719 0)"/>
      <use xlink:href="#ArialMT-48" transform="translate(483.544922 0)"/>
      <use xlink:href="#ArialMT-6f" transform="translate(555.761719 0)"/>
      <use xlink:href="#ArialMT-73" transform="translate(611.376953 0)"/>
      <use xlink:href="#ArialMT-74" transform="translate(661.376953 0)"/>
      <use xlink:href="#ArialMT-20" transform="translate(689.160156 0)"/>
      <use xlink:href="#ArialMT-50" transform="translate(716.943359 0)"/>
      <use xlink:href="#ArialMT-61" transform="translate(783.642578 0)"/>
      <use xlink:href="#ArialMT-74" transform="translate(839.257812 0)"/>
      <use xlink:href="#ArialMT-68" transform="translate(867.041016 0)"/>
      <use xlink:href="#ArialMT-77" transform="translate(922.65625 0)"/>
      <use xlink:href="#ArialMT-61" transform="translate(994.873047 0)"/>
      <use xlink:href="#ArialMT-79" transform="translate(1050.488281 0)"/>
      <use xlink:href="#ArialMT-73" transform="translate(1100.488281 0)"/>
      <use xlink:href="#ArialMT-20" transform="translate(1150.488281 0)"/>
      <use xlink:href="#ArialMT-28" transform="translate(1178.271484 0)"/>
      <use xlink:href="#ArialMT-44" transform="translate(1211.572266 0)"/>
      <use xlink:href="#ArialMT-65" transform="translate(1283.789062 0)"/>
      <use xlink:href="#ArialMT-67" transform="translate(1339.404297 0)"/>
      <use xlink:href="#ArialMT-72" transform="translate(1395.019531 0)"/>
      <use xlink:href="#ArialMT-65" transform="translate(1428.320312 0)"/>
      <use xlink:href="#ArialMT-65" transform="translate(1483.935547 0)"/>
      <use xlink:href="#ArialMT-20" transform="translate(1539.550781 0)"/>
      <use xlink:href="#ArialMT-48" transform="translate(1567.333984 0)"/>
      <use xlink:href="#ArialMT-69" transform="translate(1639.550781 0)"/>
      <use xlink:href="#ArialMT-6a" transform="translate(1661.767578 0)"/>
      <use xlink:href="#ArialMT-61" transform="translate(1683.984375 0)"/>
      <use xlink:href="#ArialMT-63" transform="translate(1739.599609 0)"/>
      <use xlink:href="#ArialMT-6b" transform="translate(1789.599609 0)"/>
      <use xlink:href="#ArialMT-29" transform="translate(1839.599609 0)"/>
     </g>
    </g>
   </g>
  </g>
 </g>
 <defs>
  <clipPath id="pc4a6539a47">
   <rect x="7.2" y="48.79775" width="558" height="443.52"/>
  </clipPath>
 </defs>
</svg>
