<?xml version="1.0" encoding="utf-8" standalone="no"?>
<!DOCTYPE svg PUBLIC "-//W3C//DTD SVG 1.1//EN"
  "http://www.w3.org/Graphics/SVG/1.1/DTD/svg11.dtd">
<svg xmlns:xlink="http://www.w3.org/1999/xlink" width="492.139375pt" height="331.4205pt" viewBox="0 0 492.139375 331.4205" xmlns="http://www.w3.org/2000/svg" version="1.1">
 <metadata>
  <rdf:RDF xmlns:dc="http://purl.org/dc/elements/1.1/" xmlns:cc="http://creativecommons.org/ns#" xmlns:rdf="http://www.w3.org/1999/02/22-rdf-syntax-ns#">
   <cc:Work>
    <dc:type rdf:resource="http://purl.org/dc/dcmitype/StillImage"/>
    <dc:date>2026-05-31T01:00:36.935738</dc:date>
    <dc:format>image/svg+xml</dc:format>
    <dc:creator>
     <cc:Agent>
      <dc:title>Matplotlib v3.10.9, https://matplotlib.org/</dc:title>
     </cc:Agent>
    </dc:creator>
   </cc:Work>
  </rdf:RDF>
 </metadata>
 <defs>
  <style type="text/css">*{stroke-linejoin: round; stroke-linecap: butt}</style>
 </defs>
 <g id="figure_1">
  <g id="patch_1">
   <path d="M 0 331.4205 
L 492.139375 331.4205 
L 492.139375 -0 
L 0 -0 
z
" style="fill: #ffffff"/>
  </g>
  <g id="axes_1">
   <g id="patch_2">
    <path d="M 38.539375 293.4405 
L 484.939375 293.4405 
L 484.939375 43.9605 
L 38.539375 43.9605 
z
" style="fill: #ffffff"/>
   </g>
   <g id="patch_3">
    <path d="M 38.539375 123.063915 
L 484.939375 123.063915 
L 484.939375 43.9605 
L 38.539375 43.9605 
z
" clip-path="url(#p4f7b6c0001)" style="fill: #34d399; opacity: 0.15; stroke: #34d399; stroke-linejoin: miter"/>
   </g>
   <g id="patch_4">
    <path d="M 38.539375 171.742939 
L 484.939375 171.742939 
L 484.939375 123.063915 
L 38.539375 123.063915 
z
" clip-path="url(#p4f7b6c0001)" style="fill: #f59e0b; opacity: 0.12; stroke: #f59e0b; stroke-linejoin: miter"/>
   </g>
   <g id="patch_5">
    <path d="M 38.539375 293.4405 
L 484.939375 293.4405 
L 484.939375 171.742939 
L 38.539375 171.742939 
z
" clip-path="url(#p4f7b6c0001)" style="fill: #f87171; opacity: 0.12; stroke: #f87171; stroke-linejoin: miter"/>
   </g>
   <g id="matplotlib.axis_1">
    <g id="xtick_1">
     <g id="line2d_1">
      <path d="M 57.459277 293.4405 
L 57.459277 43.9605 
" clip-path="url(#p4f7b6c0001)" style="fill: none; stroke-dasharray: 1.85,0.8; stroke-dashoffset: 0; stroke: #e0e0e0; stroke-width: 0.5"/>
     </g>
     <g id="line2d_2">
      <defs>
       <path id="md6fc1419b5" d="M 0 0 
L 0 3.5 
" style="stroke: #000000; stroke-width: 0.8"/>
      </defs>
      <g>
       <use xlink:href="#md6fc1419b5" x="57.459277" y="293.4405" style="stroke: #000000; stroke-width: 0.8"/>
      </g>
     </g>
     <g id="text_1">
      <!-- 0 -->
      <g transform="translate(54.956855 306.882531) scale(0.09 -0.09)">
       <defs>
        <path id="ArialMT-30" d="M 266 2259 
Q 266 3072 433 3567 
Q 600 4063 929 4331 
Q 1259 4600 1759 4600 
Q 2128 4600 2406 4451 
Q 2684 4303 2865 4023 
Q 3047 3744 3150 3342 
Q 3253 2941 3253 2259 
Q 3253 1453 3087 958 
Q 2922 463 2592 192 
Q 2263 -78 1759 -78 
Q 1097 -78 719 397 
Q 266 969 266 2259 
z
M 844 2259 
Q 844 1131 1108 757 
Q 1372 384 1759 384 
Q 2147 384 2411 759 
Q 2675 1134 2675 2259 
Q 2675 3391 2411 3762 
Q 2147 4134 1753 4134 
Q 1366 4134 1134 3806 
Q 844 3388 844 2259 
z
" transform="scale(0.015625)"/>
       </defs>
       <use xlink:href="#ArialMT-30"/>
      </g>
     </g>
    </g>
    <g id="xtick_2">
     <g id="line2d_3">
      <path d="M 126.009645 293.4405 
L 126.009645 43.9605 
" clip-path="url(#p4f7b6c0001)" style="fill: none; stroke-dasharray: 1.85,0.8; stroke-dashoffset: 0; stroke: #e0e0e0; stroke-width: 0.5"/>
     </g>
     <g id="line2d_4">
      <g>
       <use xlink:href="#md6fc1419b5" x="126.009645" y="293.4405" style="stroke: #000000; stroke-width: 0.8"/>
      </g>
     </g>
     <g id="text_2">
      <!-- 50 -->
      <g transform="translate(121.004802 306.882531) scale(0.09 -0.09)">
       <defs>
        <path id="ArialMT-35" d="M 266 1200 
L 856 1250 
Q 922 819 1161 601 
Q 1400 384 1738 384 
Q 2144 384 2425 690 
Q 2706 997 2706 1503 
Q 2706 1984 2436 2262 
Q 2166 2541 1728 2541 
Q 1456 2541 1237 2417 
Q 1019 2294 894 2097 
L 366 2166 
L 809 4519 
L 3088 4519 
L 3088 3981 
L 1259 3981 
L 1013 2750 
Q 1425 3038 1878 3038 
Q 2478 3038 2890 2622 
Q 3303 2206 3303 1553 
Q 3303 931 2941 478 
Q 2500 -78 1738 -78 
Q 1113 -78 717 272 
Q 322 622 266 1200 
z
" transform="scale(0.015625)"/>
       </defs>
       <use xlink:href="#ArialMT-35"/>
       <use xlink:href="#ArialMT-30" transform="translate(55.615234 0)"/>
      </g>
     </g>
    </g>
    <g id="xtick_3">
     <g id="line2d_5">
      <path d="M 194.560014 293.4405 
L 194.560014 43.9605 
" clip-path="url(#p4f7b6c0001)" style="fill: none; stroke-dasharray: 1.85,0.8; stroke-dashoffset: 0; stroke: #e0e0e0; stroke-width: 0.5"/>
     </g>
     <g id="line2d_6">
      <g>
       <use xlink:href="#md6fc1419b5" x="194.560014" y="293.4405" style="stroke: #000000; stroke-width: 0.8"/>
      </g>
     </g>
     <g id="text_3">
      <!-- 100 -->
      <g transform="translate(187.052748 306.882531) scale(0.09 -0.09)">
       <defs>
        <path id="ArialMT-31" d="M 2384 0 
L 1822 0 
L 1822 3584 
Q 1619 3391 1289 3197 
Q 959 3003 697 2906 
L 697 3450 
Q 1169 3672 1522 3987 
Q 1875 4303 2022 4600 
L 2384 4600 
L 2384 0 
z
" transform="scale(0.015625)"/>
       </defs>
       <use xlink:href="#ArialMT-31"/>
       <use xlink:href="#ArialMT-30" transform="translate(55.615234 0)"/>
       <use xlink:href="#ArialMT-30" transform="translate(111.230469 0)"/>
      </g>
     </g>
    </g>
    <g id="xtick_4">
     <g id="line2d_7">
      <path d="M 263.110382 293.4405 
L 263.110382 43.9605 
" clip-path="url(#p4f7b6c0001)" style="fill: none; stroke-dasharray: 1.85,0.8; stroke-dashoffset: 0; stroke: #e0e0e0; stroke-width: 0.5"/>
     </g>
     <g id="line2d_8">
      <g>
       <use xlink:href="#md6fc1419b5" x="263.110382" y="293.4405" style="stroke: #000000; stroke-width: 0.8"/>
      </g>
     </g>
     <g id="text_4">
      <!-- 150 -->
      <g transform="translate(255.603117 306.882531) scale(0.09 -0.09)">
       <use xlink:href="#ArialMT-31"/>
       <use xlink:href="#ArialMT-35" transform="translate(55.615234 0)"/>
       <use xlink:href="#ArialMT-30" transform="translate(111.230469 0)"/>
      </g>
     </g>
    </g>
    <g id="xtick_5">
     <g id="line2d_9">
      <path d="M 331.660751 293.4405 
L 331.660751 43.9605 
" clip-path="url(#p4f7b6c0001)" style="fill: none; stroke-dasharray: 1.85,0.8; stroke-dashoffset: 0; stroke: #e0e0e0; stroke-width: 0.5"/>
     </g>
     <g id="line2d_10">
      <g>
       <use xlink:href="#md6fc1419b5" x="331.660751" y="293.4405" style="stroke: #000000; stroke-width: 0.8"/>
      </g>
     </g>
     <g id="text_5">
      <!-- 200 -->
      <g transform="translate(324.153485 306.882531) scale(0.09 -0.09)">
       <defs>
        <path id="ArialMT-32" d="M 3222 541 
L 3222 0 
L 194 0 
Q 188 203 259 391 
Q 375 700 629 1000 
Q 884 1300 1366 1694 
Q 2113 2306 2375 2664 
Q 2638 3022 2638 3341 
Q 2638 3675 2398 3904 
Q 2159 4134 1775 4134 
Q 1369 4134 1125 3890 
Q 881 3647 878 3216 
L 300 3275 
Q 359 3922 746 4261 
Q 1134 4600 1788 4600 
Q 2447 4600 2831 4234 
Q 3216 3869 3216 3328 
Q 3216 3053 3103 2787 
Q 2991 2522 2730 2228 
Q 2469 1934 1863 1422 
Q 1356 997 1212 845 
Q 1069 694 975 541 
L 3222 541 
z
" transform="scale(0.015625)"/>
       </defs>
       <use xlink:href="#ArialMT-32"/>
       <use xlink:href="#ArialMT-30" transform="translate(55.615234 0)"/>
       <use xlink:href="#ArialMT-30" transform="translate(111.230469 0)"/>
      </g>
     </g>
    </g>
    <g id="xtick_6">
     <g id="line2d_11">
      <path d="M 400.211119 293.4405 
L 400.211119 43.9605 
" clip-path="url(#p4f7b6c0001)" style="fill: none; stroke-dasharray: 1.85,0.8; stroke-dashoffset: 0; stroke: #e0e0e0; stroke-width: 0.5"/>
     </g>
     <g id="line2d_12">
      <g>
       <use xlink:href="#md6fc1419b5" x="400.211119" y="293.4405" style="stroke: #000000; stroke-width: 0.8"/>
      </g>
     </g>
     <g id="text_6">
      <!-- 250 -->
      <g transform="translate(392.703854 306.882531) scale(0.09 -0.09)">
       <use xlink:href="#ArialMT-32"/>
       <use xlink:href="#ArialMT-35" transform="translate(55.615234 0)"/>
       <use xlink:href="#ArialMT-30" transform="translate(111.230469 0)"/>
      </g>
     </g>
    </g>
    <g id="xtick_7">
     <g id="line2d_13">
      <path d="M 468.761488 293.4405 
L 468.761488 43.9605 
" clip-path="url(#p4f7b6c0001)" style="fill: none; stroke-dasharray: 1.85,0.8; stroke-dashoffset: 0; stroke: #e0e0e0; stroke-width: 0.5"/>
     </g>
     <g id="line2d_14">
      <g>
       <use xlink:href="#md6fc1419b5" x="468.761488" y="293.4405" style="stroke: #000000; stroke-width: 0.8"/>
      </g>
     </g>
     <g id="text_7">
      <!-- 300 -->
      <g transform="translate(461.254222 306.882531) scale(0.09 -0.09)">
       <defs>
        <path id="ArialMT-33" d="M 269 1209 
L 831 1284 
Q 928 806 1161 595 
Q 1394 384 1728 384 
Q 2125 384 2398 659 
Q 2672 934 2672 1341 
Q 2672 1728 2419 1979 
Q 2166 2231 1775 2231 
Q 1616 2231 1378 2169 
L 1441 2663 
Q 1497 2656 1531 2656 
Q 1891 2656 2178 2843 
Q 2466 3031 2466 3422 
Q 2466 3731 2256 3934 
Q 2047 4138 1716 4138 
Q 1388 4138 1169 3931 
Q 950 3725 888 3313 
L 325 3413 
Q 428 3978 793 4289 
Q 1159 4600 1703 4600 
Q 2078 4600 2393 4439 
Q 2709 4278 2876 4000 
Q 3044 3722 3044 3409 
Q 3044 3113 2884 2869 
Q 2725 2625 2413 2481 
Q 2819 2388 3044 2092 
Q 3269 1797 3269 1353 
Q 3269 753 2831 336 
Q 2394 -81 1725 -81 
Q 1122 -81 723 278 
Q 325 638 269 1209 
z
" transform="scale(0.015625)"/>
       </defs>
       <use xlink:href="#ArialMT-33"/>
       <use xlink:href="#ArialMT-30" transform="translate(55.615234 0)"/>
       <use xlink:href="#ArialMT-30" transform="translate(111.230469 0)"/>
      </g>
     </g>
    </g>
    <g id="text_8">
     <!-- Read Base Position (bp) -->
     <g transform="translate(202.12625 320.678937) scale(0.11 -0.11)">
      <defs>
       <path id="ArialMT-52" d="M 503 0 
L 503 4581 
L 2534 4581 
Q 3147 4581 3465 4457 
Q 3784 4334 3975 4021 
Q 4166 3709 4166 3331 
Q 4166 2844 3850 2509 
Q 3534 2175 2875 2084 
Q 3116 1969 3241 1856 
Q 3506 1613 3744 1247 
L 4541 0 
L 3778 0 
L 3172 953 
Q 2906 1366 2734 1584 
Q 2563 1803 2427 1890 
Q 2291 1978 2150 2013 
Q 2047 2034 1813 2034 
L 1109 2034 
L 1109 0 
L 503 0 
z
M 1109 2559 
L 2413 2559 
Q 2828 2559 3062 2645 
Q 3297 2731 3419 2920 
Q 3541 3109 3541 3331 
Q 3541 3656 3305 3865 
Q 3069 4075 2559 4075 
L 1109 4075 
L 1109 2559 
z
" transform="scale(0.015625)"/>
       <path id="ArialMT-65" d="M 2694 1069 
L 3275 997 
Q 3138 488 2766 206 
Q 2394 -75 1816 -75 
Q 1088 -75 661 373 
Q 234 822 234 1631 
Q 234 2469 665 2931 
Q 1097 3394 1784 3394 
Q 2450 3394 2872 2941 
Q 3294 2488 3294 1666 
Q 3294 1616 3291 1516 
L 816 1516 
Q 847 969 1125 678 
Q 1403 388 1819 388 
Q 2128 388 2347 550 
Q 2566 713 2694 1069 
z
M 847 1978 
L 2700 1978 
Q 2663 2397 2488 2606 
Q 2219 2931 1791 2931 
Q 1403 2931 1139 2672 
Q 875 2413 847 1978 
z
" transform="scale(0.015625)"/>
       <path id="ArialMT-61" d="M 2588 409 
Q 2275 144 1986 34 
Q 1697 -75 1366 -75 
Q 819 -75 525 192 
Q 231 459 231 875 
Q 231 1119 342 1320 
Q 453 1522 633 1644 
Q 813 1766 1038 1828 
Q 1203 1872 1538 1913 
Q 2219 1994 2541 2106 
Q 2544 2222 2544 2253 
Q 2544 2597 2384 2738 
Q 2169 2928 1744 2928 
Q 1347 2928 1158 2789 
Q 969 2650 878 2297 
L 328 2372 
Q 403 2725 575 2942 
Q 747 3159 1072 3276 
Q 1397 3394 1825 3394 
Q 2250 3394 2515 3294 
Q 2781 3194 2906 3042 
Q 3031 2891 3081 2659 
Q 3109 2516 3109 2141 
L 3109 1391 
Q 3109 606 3145 398 
Q 3181 191 3288 0 
L 2700 0 
Q 2613 175 2588 409 
z
M 2541 1666 
Q 2234 1541 1622 1453 
Q 1275 1403 1131 1340 
Q 988 1278 909 1158 
Q 831 1038 831 891 
Q 831 666 1001 516 
Q 1172 366 1500 366 
Q 1825 366 2078 508 
Q 2331 650 2450 897 
Q 2541 1088 2541 1459 
L 2541 1666 
z
" transform="scale(0.015625)"/>
       <path id="ArialMT-64" d="M 2575 0 
L 2575 419 
Q 2259 -75 1647 -75 
Q 1250 -75 917 144 
Q 584 363 401 755 
Q 219 1147 219 1656 
Q 219 2153 384 2558 
Q 550 2963 881 3178 
Q 1213 3394 1622 3394 
Q 1922 3394 2156 3267 
Q 2391 3141 2538 2938 
L 2538 4581 
L 3097 4581 
L 3097 0 
L 2575 0 
z
M 797 1656 
Q 797 1019 1065 703 
Q 1334 388 1700 388 
Q 2069 388 2326 689 
Q 2584 991 2584 1609 
Q 2584 2291 2321 2609 
Q 2059 2928 1675 2928 
Q 1300 2928 1048 2622 
Q 797 2316 797 1656 
z
" transform="scale(0.015625)"/>
       <path id="ArialMT-20" transform="scale(0.015625)"/>
       <path id="ArialMT-42" d="M 469 0 
L 469 4581 
L 2188 4581 
Q 2713 4581 3030 4442 
Q 3347 4303 3526 4014 
Q 3706 3725 3706 3409 
Q 3706 3116 3547 2856 
Q 3388 2597 3066 2438 
Q 3481 2316 3704 2022 
Q 3928 1728 3928 1328 
Q 3928 1006 3792 729 
Q 3656 453 3456 303 
Q 3256 153 2954 76 
Q 2653 0 2216 0 
L 469 0 
z
M 1075 2656 
L 2066 2656 
Q 2469 2656 2644 2709 
Q 2875 2778 2992 2937 
Q 3109 3097 3109 3338 
Q 3109 3566 3000 3739 
Q 2891 3913 2687 3977 
Q 2484 4041 1991 4041 
L 1075 4041 
L 1075 2656 
z
M 1075 541 
L 2216 541 
Q 2509 541 2628 563 
Q 2838 600 2978 687 
Q 3119 775 3209 942 
Q 3300 1109 3300 1328 
Q 3300 1584 3169 1773 
Q 3038 1963 2805 2039 
Q 2572 2116 2134 2116 
L 1075 2116 
L 1075 541 
z
" transform="scale(0.015625)"/>
       <path id="ArialMT-73" d="M 197 991 
L 753 1078 
Q 800 744 1014 566 
Q 1228 388 1613 388 
Q 2000 388 2187 545 
Q 2375 703 2375 916 
Q 2375 1106 2209 1216 
Q 2094 1291 1634 1406 
Q 1016 1563 777 1677 
Q 538 1791 414 1992 
Q 291 2194 291 2438 
Q 291 2659 392 2848 
Q 494 3038 669 3163 
Q 800 3259 1026 3326 
Q 1253 3394 1513 3394 
Q 1903 3394 2198 3281 
Q 2494 3169 2634 2976 
Q 2775 2784 2828 2463 
L 2278 2388 
Q 2241 2644 2061 2787 
Q 1881 2931 1553 2931 
Q 1166 2931 1000 2803 
Q 834 2675 834 2503 
Q 834 2394 903 2306 
Q 972 2216 1119 2156 
Q 1203 2125 1616 2013 
Q 2213 1853 2448 1751 
Q 2684 1650 2818 1456 
Q 2953 1263 2953 975 
Q 2953 694 2789 445 
Q 2625 197 2315 61 
Q 2006 -75 1616 -75 
Q 969 -75 630 194 
Q 291 463 197 991 
z
" transform="scale(0.015625)"/>
       <path id="ArialMT-50" d="M 494 0 
L 494 4581 
L 2222 4581 
Q 2678 4581 2919 4538 
Q 3256 4481 3484 4323 
Q 3713 4166 3852 3881 
Q 3991 3597 3991 3256 
Q 3991 2672 3619 2267 
Q 3247 1863 2275 1863 
L 1100 1863 
L 1100 0 
L 494 0 
z
M 1100 2403 
L 2284 2403 
Q 2872 2403 3119 2622 
Q 3366 2841 3366 3238 
Q 3366 3525 3220 3729 
Q 3075 3934 2838 4000 
Q 2684 4041 2272 4041 
L 1100 4041 
L 1100 2403 
z
" transform="scale(0.015625)"/>
       <path id="ArialMT-6f" d="M 213 1659 
Q 213 2581 725 3025 
Q 1153 3394 1769 3394 
Q 2453 3394 2887 2945 
Q 3322 2497 3322 1706 
Q 3322 1066 3130 698 
Q 2938 331 2570 128 
Q 2203 -75 1769 -75 
Q 1072 -75 642 372 
Q 213 819 213 1659 
z
M 791 1659 
Q 791 1022 1069 705 
Q 1347 388 1769 388 
Q 2188 388 2466 706 
Q 2744 1025 2744 1678 
Q 2744 2294 2464 2611 
Q 2184 2928 1769 2928 
Q 1347 2928 1069 2612 
Q 791 2297 791 1659 
z
" transform="scale(0.015625)"/>
       <path id="ArialMT-69" d="M 425 3934 
L 425 4581 
L 988 4581 
L 988 3934 
L 425 3934 
z
M 425 0 
L 425 3319 
L 988 3319 
L 988 0 
L 425 0 
z
" transform="scale(0.015625)"/>
       <path id="ArialMT-74" d="M 1650 503 
L 1731 6 
Q 1494 -44 1306 -44 
Q 1000 -44 831 53 
Q 663 150 594 308 
Q 525 466 525 972 
L 525 2881 
L 113 2881 
L 113 3319 
L 525 3319 
L 525 4141 
L 1084 4478 
L 1084 3319 
L 1650 3319 
L 1650 2881 
L 1084 2881 
L 1084 941 
Q 1084 700 1114 631 
Q 1144 563 1211 522 
Q 1278 481 1403 481 
Q 1497 481 1650 503 
z
" transform="scale(0.015625)"/>
       <path id="ArialMT-6e" d="M 422 0 
L 422 3319 
L 928 3319 
L 928 2847 
Q 1294 3394 1984 3394 
Q 2284 3394 2536 3286 
Q 2788 3178 2913 3003 
Q 3038 2828 3088 2588 
Q 3119 2431 3119 2041 
L 3119 0 
L 2556 0 
L 2556 2019 
Q 2556 2363 2490 2533 
Q 2425 2703 2258 2804 
Q 2091 2906 1866 2906 
Q 1506 2906 1245 2678 
Q 984 2450 984 1813 
L 984 0 
L 422 0 
z
" transform="scale(0.015625)"/>
       <path id="ArialMT-28" d="M 1497 -1347 
Q 1031 -759 709 28 
Q 388 816 388 1659 
Q 388 2403 628 3084 
Q 909 3875 1497 4659 
L 1900 4659 
Q 1522 4009 1400 3731 
Q 1209 3300 1100 2831 
Q 966 2247 966 1656 
Q 966 153 1900 -1347 
L 1497 -1347 
z
" transform="scale(0.015625)"/>
       <path id="ArialMT-62" d="M 941 0 
L 419 0 
L 419 4581 
L 981 4581 
L 981 2947 
Q 1338 3394 1891 3394 
Q 2197 3394 2470 3270 
Q 2744 3147 2920 2923 
Q 3097 2700 3197 2384 
Q 3297 2069 3297 1709 
Q 3297 856 2875 390 
Q 2453 -75 1863 -75 
Q 1275 -75 941 416 
L 941 0 
z
M 934 1684 
Q 934 1088 1097 822 
Q 1363 388 1816 388 
Q 2184 388 2453 708 
Q 2722 1028 2722 1663 
Q 2722 2313 2464 2622 
Q 2206 2931 1841 2931 
Q 1472 2931 1203 2611 
Q 934 2291 934 1684 
z
" transform="scale(0.015625)"/>
       <path id="ArialMT-70" d="M 422 -1272 
L 422 3319 
L 934 3319 
L 934 2888 
Q 1116 3141 1344 3267 
Q 1572 3394 1897 3394 
Q 2322 3394 2647 3175 
Q 2972 2956 3137 2557 
Q 3303 2159 3303 1684 
Q 3303 1175 3120 767 
Q 2938 359 2589 142 
Q 2241 -75 1856 -75 
Q 1575 -75 1351 44 
Q 1128 163 984 344 
L 984 -1272 
L 422 -1272 
z
M 931 1641 
Q 931 1000 1190 694 
Q 1450 388 1819 388 
Q 2194 388 2461 705 
Q 2728 1022 2728 1688 
Q 2728 2322 2467 2637 
Q 2206 2953 1844 2953 
Q 1484 2953 1207 2617 
Q 931 2281 931 1641 
z
" transform="scale(0.015625)"/>
       <path id="ArialMT-29" d="M 791 -1347 
L 388 -1347 
Q 1322 153 1322 1656 
Q 1322 2244 1188 2822 
Q 1081 3291 891 3722 
Q 769 4003 388 4659 
L 791 4659 
Q 1378 3875 1659 3084 
Q 1900 2403 1900 1659 
Q 1900 816 1576 28 
Q 1253 -759 791 -1347 
z
" transform="scale(0.015625)"/>
      </defs>
      <use xlink:href="#ArialMT-52"/>
      <use xlink:href="#ArialMT-65" transform="translate(72.216797 0)"/>
      <use xlink:href="#ArialMT-61" transform="translate(127.832031 0)"/>
      <use xlink:href="#ArialMT-64" transform="translate(183.447266 0)"/>
      <use xlink:href="#ArialMT-20" transform="translate(239.0625 0)"/>
      <use xlink:href="#ArialMT-42" transform="translate(266.845703 0)"/>
      <use xlink:href="#ArialMT-61" transform="translate(333.544922 0)"/>
      <use xlink:href="#ArialMT-73" transform="translate(389.160156 0)"/>
      <use xlink:href="#ArialMT-65" transform="translate(439.160156 0)"/>
      <use xlink:href="#ArialMT-20" transform="translate(494.775391 0)"/>
      <use xlink:href="#ArialMT-50" transform="translate(522.558594 0)"/>
      <use xlink:href="#ArialMT-6f" transform="translate(589.257812 0)"/>
      <use xlink:href="#ArialMT-73" transform="translate(644.873047 0)"/>
      <use xlink:href="#ArialMT-69" transform="translate(694.873047 0)"/>
      <use xlink:href="#ArialMT-74" transform="translate(717.089844 0)"/>
      <use xlink:href="#ArialMT-69" transform="translate(744.873047 0)"/>
      <use xlink:href="#ArialMT-6f" transform="translate(767.089844 0)"/>
      <use xlink:href="#ArialMT-6e" transform="translate(822.705078 0)"/>
      <use xlink:href="#ArialMT-20" transform="translate(878.320312 0)"/>
      <use xlink:href="#ArialMT-28" transform="translate(906.103516 0)"/>
      <use xlink:href="#ArialMT-62" transform="translate(939.404297 0)"/>
      <use xlink:href="#ArialMT-70" transform="translate(995.019531 0)"/>
      <use xlink:href="#ArialMT-29" transform="translate(1050.634766 0)"/>
     </g>
    </g>
   </g>
   <g id="matplotlib.axis_2">
    <g id="ytick_1">
     <g id="line2d_15">
      <path d="M 38.539375 293.4405 
L 484.939375 293.4405 
" clip-path="url(#p4f7b6c0001)" style="fill: none; stroke-dasharray: 1.85,0.8; stroke-dashoffset: 0; stroke: #e0e0e0; stroke-width: 0.5"/>
     </g>
     <g id="line2d_16">
      <defs>
       <path id="m93fc011e55" d="M 0 0 
L -3.5 0 
" style="stroke: #000000; stroke-width: 0.8"/>
      </defs>
      <g>
       <use xlink:href="#m93fc011e55" x="38.539375" y="293.4405" style="stroke: #000000; stroke-width: 0.8"/>
      </g>
     </g>
     <g id="text_9">
      <!-- 0 -->
      <g transform="translate(26.534531 296.661516) scale(0.09 -0.09)">
       <use xlink:href="#ArialMT-30"/>
      </g>
     </g>
    </g>
    <g id="ytick_2">
     <g id="line2d_17">
      <path d="M 38.539375 263.01611 
L 484.939375 263.01611 
" clip-path="url(#p4f7b6c0001)" style="fill: none; stroke-dasharray: 1.85,0.8; stroke-dashoffset: 0; stroke: #e0e0e0; stroke-width: 0.5"/>
     </g>
     <g id="line2d_18">
      <g>
       <use xlink:href="#m93fc011e55" x="38.539375" y="263.01611" style="stroke: #000000; stroke-width: 0.8"/>
      </g>
     </g>
     <g id="text_10">
      <!-- 5 -->
      <g transform="translate(26.534531 266.237125) scale(0.09 -0.09)">
       <use xlink:href="#ArialMT-35"/>
      </g>
     </g>
    </g>
    <g id="ytick_3">
     <g id="line2d_19">
      <path d="M 38.539375 232.59172 
L 484.939375 232.59172 
" clip-path="url(#p4f7b6c0001)" style="fill: none; stroke-dasharray: 1.85,0.8; stroke-dashoffset: 0; stroke: #e0e0e0; stroke-width: 0.5"/>
     </g>
     <g id="line2d_20">
      <g>
       <use xlink:href="#m93fc011e55" x="38.539375" y="232.59172" style="stroke: #000000; stroke-width: 0.8"/>
      </g>
     </g>
     <g id="text_11">
      <!-- 10 -->
      <g transform="translate(21.529688 235.812735) scale(0.09 -0.09)">
       <use xlink:href="#ArialMT-31"/>
       <use xlink:href="#ArialMT-30" transform="translate(55.615234 0)"/>
      </g>
     </g>
    </g>
    <g id="ytick_4">
     <g id="line2d_21">
      <path d="M 38.539375 202.167329 
L 484.939375 202.167329 
" clip-path="url(#p4f7b6c0001)" style="fill: none; stroke-dasharray: 1.85,0.8; stroke-dashoffset: 0; stroke: #e0e0e0; stroke-width: 0.5"/>
     </g>
     <g id="line2d_22">
      <g>
       <use xlink:href="#m93fc011e55" x="38.539375" y="202.167329" style="stroke: #000000; stroke-width: 0.8"/>
      </g>
     </g>
     <g id="text_12">
      <!-- 15 -->
      <g transform="translate(21.529688 205.388345) scale(0.09 -0.09)">
       <use xlink:href="#ArialMT-31"/>
       <use xlink:href="#ArialMT-35" transform="translate(55.615234 0)"/>
      </g>
     </g>
    </g>
    <g id="ytick_5">
     <g id="line2d_23">
      <path d="M 38.539375 171.742939 
L 484.939375 171.742939 
" clip-path="url(#p4f7b6c0001)" style="fill: none; stroke-dasharray: 1.85,0.8; stroke-dashoffset: 0; stroke: #e0e0e0; stroke-width: 0.5"/>
     </g>
     <g id="line2d_24">
      <g>
       <use xlink:href="#m93fc011e55" x="38.539375" y="171.742939" style="stroke: #000000; stroke-width: 0.8"/>
      </g>
     </g>
     <g id="text_13">
      <!-- 20 -->
      <g transform="translate(21.529688 174.963955) scale(0.09 -0.09)">
       <use xlink:href="#ArialMT-32"/>
       <use xlink:href="#ArialMT-30" transform="translate(55.615234 0)"/>
      </g>
     </g>
    </g>
    <g id="ytick_6">
     <g id="line2d_25">
      <path d="M 38.539375 141.318549 
L 484.939375 141.318549 
" clip-path="url(#p4f7b6c0001)" style="fill: none; stroke-dasharray: 1.85,0.8; stroke-dashoffset: 0; stroke: #e0e0e0; stroke-width: 0.5"/>
     </g>
     <g id="line2d_26">
      <g>
       <use xlink:href="#m93fc011e55" x="38.539375" y="141.318549" style="stroke: #000000; stroke-width: 0.8"/>
      </g>
     </g>
     <g id="text_14">
      <!-- 25 -->
      <g transform="translate(21.529688 144.539564) scale(0.09 -0.09)">
       <use xlink:href="#ArialMT-32"/>
       <use xlink:href="#ArialMT-35" transform="translate(55.615234 0)"/>
      </g>
     </g>
    </g>
    <g id="ytick_7">
     <g id="line2d_27">
      <path d="M 38.539375 110.894159 
L 484.939375 110.894159 
" clip-path="url(#p4f7b6c0001)" style="fill: none; stroke-dasharray: 1.85,0.8; stroke-dashoffset: 0; stroke: #e0e0e0; stroke-width: 0.5"/>
     </g>
     <g id="line2d_28">
      <g>
       <use xlink:href="#m93fc011e55" x="38.539375" y="110.894159" style="stroke: #000000; stroke-width: 0.8"/>
      </g>
     </g>
     <g id="text_15">
      <!-- 30 -->
      <g transform="translate(21.529688 114.115174) scale(0.09 -0.09)">
       <use xlink:href="#ArialMT-33"/>
       <use xlink:href="#ArialMT-30" transform="translate(55.615234 0)"/>
      </g>
     </g>
    </g>
    <g id="ytick_8">
     <g id="line2d_29">
      <path d="M 38.539375 80.469768 
L 484.939375 80.469768 
" clip-path="url(#p4f7b6c0001)" style="fill: none; stroke-dasharray: 1.85,0.8; stroke-dashoffset: 0; stroke: #e0e0e0; stroke-width: 0.5"/>
     </g>
     <g id="line2d_30">
      <g>
       <use xlink:href="#m93fc011e55" x="38.539375" y="80.469768" style="stroke: #000000; stroke-width: 0.8"/>
      </g>
     </g>
     <g id="text_16">
      <!-- 35 -->
      <g transform="translate(21.529688 83.690784) scale(0.09 -0.09)">
       <use xlink:href="#ArialMT-33"/>
       <use xlink:href="#ArialMT-35" transform="translate(55.615234 0)"/>
      </g>
     </g>
    </g>
    <g id="ytick_9">
     <g id="line2d_31">
      <path d="M 38.539375 50.045378 
L 484.939375 50.045378 
" clip-path="url(#p4f7b6c0001)" style="fill: none; stroke-dasharray: 1.85,0.8; stroke-dashoffset: 0; stroke: #e0e0e0; stroke-width: 0.5"/>
     </g>
     <g id="line2d_32">
      <g>
       <use xlink:href="#m93fc011e55" x="38.539375" y="50.045378" style="stroke: #000000; stroke-width: 0.8"/>
      </g>
     </g>
     <g id="text_17">
      <!-- 40 -->
      <g transform="translate(21.529688 53.266394) scale(0.09 -0.09)">
       <defs>
        <path id="ArialMT-34" d="M 2069 0 
L 2069 1097 
L 81 1097 
L 81 1613 
L 2172 4581 
L 2631 4581 
L 2631 1613 
L 3250 1613 
L 3250 1097 
L 2631 1097 
L 2631 0 
L 2069 0 
z
M 2069 1613 
L 2069 3678 
L 634 1613 
L 2069 1613 
z
" transform="scale(0.015625)"/>
       </defs>
       <use xlink:href="#ArialMT-34"/>
       <use xlink:href="#ArialMT-30" transform="translate(55.615234 0)"/>
      </g>
     </g>
    </g>
    <g id="text_18">
     <!-- Quality Score (Phred Q) -->
     <g transform="translate(15.214531 227.384641) rotate(-90) scale(0.11 -0.11)">
      <defs>
       <path id="ArialMT-51" d="M 3966 491 
Q 4388 200 4744 66 
L 4566 -356 
Q 4072 -178 3581 206 
Q 3072 -78 2456 -78 
Q 1834 -78 1328 222 
Q 822 522 548 1065 
Q 275 1609 275 2291 
Q 275 2969 550 3525 
Q 825 4081 1333 4372 
Q 1841 4663 2469 4663 
Q 3103 4663 3612 4361 
Q 4122 4059 4389 3517 
Q 4656 2975 4656 2294 
Q 4656 1728 4484 1276 
Q 4313 825 3966 491 
z
M 2631 1266 
Q 3156 1119 3497 828 
Q 4031 1316 4031 2294 
Q 4031 2850 3842 3265 
Q 3653 3681 3289 3911 
Q 2925 4141 2472 4141 
Q 1794 4141 1347 3677 
Q 900 3213 900 2291 
Q 900 1397 1342 919 
Q 1784 441 2472 441 
Q 2797 441 3084 563 
Q 2800 747 2484 825 
L 2631 1266 
z
" transform="scale(0.015625)"/>
       <path id="ArialMT-75" d="M 2597 0 
L 2597 488 
Q 2209 -75 1544 -75 
Q 1250 -75 995 37 
Q 741 150 617 320 
Q 494 491 444 738 
Q 409 903 409 1263 
L 409 3319 
L 972 3319 
L 972 1478 
Q 972 1038 1006 884 
Q 1059 663 1231 536 
Q 1403 409 1656 409 
Q 1909 409 2131 539 
Q 2353 669 2445 892 
Q 2538 1116 2538 1541 
L 2538 3319 
L 3100 3319 
L 3100 0 
L 2597 0 
z
" transform="scale(0.015625)"/>
       <path id="ArialMT-6c" d="M 409 0 
L 409 4581 
L 972 4581 
L 972 0 
L 409 0 
z
" transform="scale(0.015625)"/>
       <path id="ArialMT-79" d="M 397 -1278 
L 334 -750 
Q 519 -800 656 -800 
Q 844 -800 956 -737 
Q 1069 -675 1141 -563 
Q 1194 -478 1313 -144 
Q 1328 -97 1363 -6 
L 103 3319 
L 709 3319 
L 1400 1397 
Q 1534 1031 1641 628 
Q 1738 1016 1872 1384 
L 2581 3319 
L 3144 3319 
L 1881 -56 
Q 1678 -603 1566 -809 
Q 1416 -1088 1222 -1217 
Q 1028 -1347 759 -1347 
Q 597 -1347 397 -1278 
z
" transform="scale(0.015625)"/>
       <path id="ArialMT-53" d="M 288 1472 
L 859 1522 
Q 900 1178 1048 958 
Q 1197 738 1509 602 
Q 1822 466 2213 466 
Q 2559 466 2825 569 
Q 3091 672 3220 851 
Q 3350 1031 3350 1244 
Q 3350 1459 3225 1620 
Q 3100 1781 2813 1891 
Q 2628 1963 1997 2114 
Q 1366 2266 1113 2400 
Q 784 2572 623 2826 
Q 463 3081 463 3397 
Q 463 3744 659 4045 
Q 856 4347 1234 4503 
Q 1613 4659 2075 4659 
Q 2584 4659 2973 4495 
Q 3363 4331 3572 4012 
Q 3781 3694 3797 3291 
L 3216 3247 
Q 3169 3681 2898 3903 
Q 2628 4125 2100 4125 
Q 1550 4125 1298 3923 
Q 1047 3722 1047 3438 
Q 1047 3191 1225 3031 
Q 1400 2872 2139 2705 
Q 2878 2538 3153 2413 
Q 3553 2228 3743 1945 
Q 3934 1663 3934 1294 
Q 3934 928 3725 604 
Q 3516 281 3123 101 
Q 2731 -78 2241 -78 
Q 1619 -78 1198 103 
Q 778 284 539 648 
Q 300 1013 288 1472 
z
" transform="scale(0.015625)"/>
       <path id="ArialMT-63" d="M 2588 1216 
L 3141 1144 
Q 3050 572 2676 248 
Q 2303 -75 1759 -75 
Q 1078 -75 664 370 
Q 250 816 250 1647 
Q 250 2184 428 2587 
Q 606 2991 970 3192 
Q 1334 3394 1763 3394 
Q 2303 3394 2647 3120 
Q 2991 2847 3088 2344 
L 2541 2259 
Q 2463 2594 2264 2762 
Q 2066 2931 1784 2931 
Q 1359 2931 1093 2626 
Q 828 2322 828 1663 
Q 828 994 1084 691 
Q 1341 388 1753 388 
Q 2084 388 2306 591 
Q 2528 794 2588 1216 
z
" transform="scale(0.015625)"/>
       <path id="ArialMT-72" d="M 416 0 
L 416 3319 
L 922 3319 
L 922 2816 
Q 1116 3169 1280 3281 
Q 1444 3394 1641 3394 
Q 1925 3394 2219 3213 
L 2025 2691 
Q 1819 2813 1613 2813 
Q 1428 2813 1281 2702 
Q 1134 2591 1072 2394 
Q 978 2094 978 1738 
L 978 0 
L 416 0 
z
" transform="scale(0.015625)"/>
       <path id="ArialMT-68" d="M 422 0 
L 422 4581 
L 984 4581 
L 984 2938 
Q 1378 3394 1978 3394 
Q 2347 3394 2619 3248 
Q 2891 3103 3008 2847 
Q 3125 2591 3125 2103 
L 3125 0 
L 2563 0 
L 2563 2103 
Q 2563 2525 2380 2717 
Q 2197 2909 1863 2909 
Q 1613 2909 1392 2779 
Q 1172 2650 1078 2428 
Q 984 2206 984 1816 
L 984 0 
L 422 0 
z
" transform="scale(0.015625)"/>
      </defs>
      <use xlink:href="#ArialMT-51"/>
      <use xlink:href="#ArialMT-75" transform="translate(77.783203 0)"/>
      <use xlink:href="#ArialMT-61" transform="translate(133.398438 0)"/>
      <use xlink:href="#ArialMT-6c" transform="translate(189.013672 0)"/>
      <use xlink:href="#ArialMT-69" transform="translate(211.230469 0)"/>
      <use xlink:href="#ArialMT-74" transform="translate(233.447266 0)"/>
      <use xlink:href="#ArialMT-79" transform="translate(261.230469 0)"/>
      <use xlink:href="#ArialMT-20" transform="translate(311.230469 0)"/>
      <use xlink:href="#ArialMT-53" transform="translate(339.013672 0)"/>
      <use xlink:href="#ArialMT-63" transform="translate(405.712891 0)"/>
      <use xlink:href="#ArialMT-6f" transform="translate(455.712891 0)"/>
      <use xlink:href="#ArialMT-72" transform="translate(511.328125 0)"/>
      <use xlink:href="#ArialMT-65" transform="translate(544.628906 0)"/>
      <use xlink:href="#ArialMT-20" transform="translate(600.244141 0)"/>
      <use xlink:href="#ArialMT-28" transform="translate(628.027344 0)"/>
      <use xlink:href="#ArialMT-50" transform="translate(661.328125 0)"/>
      <use xlink:href="#ArialMT-68" transform="translate(728.027344 0)"/>
      <use xlink:href="#ArialMT-72" transform="translate(783.642578 0)"/>
      <use xlink:href="#ArialMT-65" transform="translate(816.943359 0)"/>
      <use xlink:href="#ArialMT-64" transform="translate(872.558594 0)"/>
      <use xlink:href="#ArialMT-20" transform="translate(928.173828 0)"/>
      <use xlink:href="#ArialMT-51" transform="translate(955.957031 0)"/>
      <use xlink:href="#ArialMT-29" transform="translate(1033.740234 0)"/>
     </g>
    </g>
   </g>
   <g id="line2d_33">
    <path d="M 58.830284 107.912568 
L 60.201291 97.629124 
L 61.572299 93.36971 
L 62.943306 90.205573 
L 64.314314 89.35369 
L 65.685321 69.151895 
L 67.056328 71.524998 
L 68.427336 67.569827 
L 69.798343 66.717944 
L 71.16935 68.725954 
L 72.540358 71.099056 
L 73.911365 71.4033 
L 75.282373 68.300012 
L 76.65338 67.630676 
L 78.024387 68.178315 
L 79.395395 68.300012 
L 80.766402 69.821232 
L 82.137409 69.151895 
L 83.508417 71.4033 
L 84.879424 71.585846 
L 86.250432 67.995768 
L 87.621439 68.543407 
L 88.992446 70.42972 
L 90.363454 67.874071 
L 91.734461 70.733963 
L 93.105468 71.4033 
L 94.476476 67.630676 
L 95.847483 67.204734 
L 97.21849 72.985368 
L 98.589498 67.569827 
L 99.960505 71.4033 
L 101.331513 68.178315 
L 102.70252 74.689134 
L 104.073527 69.151895 
L 105.444535 69.577837 
L 106.815542 70.673115 
L 108.186549 69.699534 
L 109.557557 73.41131 
L 110.928564 72.37688 
L 112.299572 71.159905 
L 113.670579 75.054227 
L 115.041586 70.673115 
L 116.412594 69.273593 
L 117.783601 71.281602 
L 119.154608 69.39529 
L 120.525616 69.273593 
L 121.896623 72.133485 
L 123.267631 77.670724 
L 124.638638 69.699534 
L 126.009645 81.443349 
L 127.380653 72.681124 
L 128.75166 74.506588 
L 130.122667 78.461759 
L 131.493675 72.37688 
L 132.864682 67.874071 
L 134.235689 67.204734 
L 135.606697 70.673115 
L 136.977704 69.821232 
L 138.348712 68.543407 
L 139.719719 72.802822 
L 141.090726 65.500968 
L 142.461734 72.133485 
L 143.832741 75.054227 
L 145.203748 71.4033 
L 146.574756 72.985368 
L 147.945763 73.41131 
L 149.316771 74.080646 
L 150.687778 74.932529 
L 152.058785 73.958949 
L 153.429793 70.125476 
L 154.8008 71.159905 
L 156.171807 66.292002 
L 157.542815 69.151895 
L 158.913822 69.456139 
L 160.28483 72.255183 
L 161.655837 70.42972 
L 163.026844 73.837251 
L 164.397852 68.543407 
L 165.768859 69.577837 
L 167.139866 79.739583 
L 168.510874 79.070246 
L 169.881881 75.90611 
L 171.252889 76.332051 
L 172.623896 69.030198 
L 173.994903 68.604256 
L 175.365911 72.681124 
L 176.736918 73.654705 
L 178.107925 71.4033 
L 179.478933 69.39529 
L 180.84994 72.133485 
L 182.220947 77.91412 
L 183.591955 74.506588 
L 184.962962 72.255183 
L 187.704977 72.863671 
L 189.075984 69.88208 
L 190.446992 73.533007 
L 191.817999 71.099056 
L 193.189006 70.855661 
L 194.560014 74.38489 
L 195.931021 69.516988 
L 197.302029 72.802822 
L 198.673036 71.89009 
L 200.044043 68.969349 
L 201.415051 71.281602 
L 202.786058 75.480168 
L 204.157065 75.480168 
L 205.528073 73.41131 
L 206.89908 76.757993 
L 208.270088 72.681124 
L 209.641095 72.194334 
L 211.012102 76.332051 
L 212.38311 76.453749 
L 213.754117 68.786802 
L 215.125124 68.9085 
L 216.496132 73.8981 
L 217.867139 74.993378 
L 219.238146 74.141495 
L 220.609154 72.985368 
L 221.980161 70.977359 
L 223.351169 67.569827 
L 224.722176 70.247173 
L 226.093183 67.508978 
L 227.464191 66.717944 
L 228.835198 65.622666 
L 230.206205 65.318422 
L 231.577213 67.326432 
L 232.94822 67.874071 
L 234.319228 65.44012 
L 235.690235 65.866061 
L 237.061242 65.622666 
L 238.43225 67.448129 
L 239.803257 68.847651 
L 241.174264 66.90049 
L 242.545272 65.196724 
L 243.916279 64.344841 
L 245.287287 70.551417 
L 246.658294 67.448129 
L 248.029301 64.831632 
L 249.400309 68.300012 
L 250.771316 66.535398 
L 252.142323 66.535398 
L 253.513331 64.588237 
L 254.884338 68.42171 
L 256.255346 64.344841 
L 257.626353 72.620276 
L 258.99736 68.786802 
L 260.368368 68.117466 
L 261.739375 69.151895 
L 263.110382 67.813222 
L 264.48139 67.813222 
L 265.852397 67.143885 
L 267.223404 66.109456 
L 268.594412 66.4137 
L 269.965419 65.866061 
L 271.336427 64.649085 
L 272.707434 65.500968 
L 275.449449 75.054227 
L 276.820456 72.011788 
L 278.191463 68.117466 
L 279.562471 73.472159 
L 280.933478 73.472159 
L 282.304486 66.596246 
L 283.675493 69.456139 
L 285.0465 65.987759 
L 286.417508 69.577837 
L 287.788515 71.646695 
L 289.159522 68.300012 
L 290.53053 68.9085 
L 291.901537 72.316032 
L 293.272545 65.135876 
L 294.643552 70.003778 
L 296.014559 68.482559 
L 297.385567 72.37688 
L 298.756574 69.212744 
L 300.127581 64.89248 
L 301.498589 64.649085 
L 302.869596 69.516988 
L 304.240604 67.813222 
L 305.611611 72.620276 
L 306.982618 81.504198 
L 308.353626 73.350461 
L 309.724633 70.125476 
L 311.09564 72.011788 
L 312.466648 72.802822 
L 313.837655 65.987759 
L 315.208662 69.151895 
L 316.57967 76.210354 
L 317.950677 70.42972 
L 319.321685 65.866061 
L 320.692692 69.212744 
L 322.063699 65.257573 
L 323.434707 67.691524 
L 324.805714 70.733963 
L 326.176721 64.649085 
L 327.547729 65.866061 
L 328.918736 65.866061 
L 330.289744 71.707544 
L 331.660751 71.342451 
L 333.031758 74.38489 
L 334.402766 63.979749 
L 335.773773 64.101446 
L 337.14478 66.4137 
L 338.515788 75.115076 
L 339.886795 73.654705 
L 341.257803 69.030198 
L 342.62881 74.749983 
L 343.999817 75.90611 
L 345.370825 78.035817 
L 346.741832 82.477778 
L 348.112839 68.300012 
L 349.483847 70.490568 
L 350.854854 78.583456 
L 352.225861 72.072637 
L 353.596869 80.956559 
L 354.967876 75.297622 
L 356.338884 80.956559 
L 357.709891 73.8981 
L 359.080898 77.183934 
L 360.451906 75.297622 
L 361.822913 74.87168 
L 363.19392 77.670724 
L 364.564928 67.813222 
L 365.935935 67.38728 
L 367.306943 72.985368 
L 368.67795 84.668334 
L 370.048957 81.3825 
L 371.419965 85.641915 
L 372.790972 83.268812 
L 374.161979 78.157515 
L 375.532987 86.067856 
L 376.903994 79.070246 
L 378.275002 89.597085 
L 379.646009 84.546637 
L 381.017016 72.863671 
L 382.388024 77.427329 
L 383.759031 77.427329 
L 385.130038 97.689973 
L 386.501046 103.288061 
L 387.872053 103.288061 
L 389.243061 115.883759 
L 390.614068 99.81968 
L 391.985075 109.251241 
L 393.356083 104.200793 
L 394.72709 135.233671 
L 396.098097 137.059134 
L 397.469105 106.026256 
L 398.840112 113.936598 
L 400.211119 110.285671 
L 401.582127 110.285671 
L 402.953134 109.677183 
L 404.324142 146.186451 
L 405.695149 146.794939 
L 407.066156 141.318549 
L 408.437164 140.649212 
L 409.808171 115.640363 
L 411.179178 127.81012 
L 412.550186 118.31771 
L 413.921193 140.588363 
L 415.292201 124.28089 
L 416.663208 126.714841 
L 418.034215 157.139232 
L 419.405223 138.884598 
L 420.77623 130.670012 
L 422.147237 120.021476 
L 423.518245 92.639524 
L 424.889252 78.461759 
L 426.26026 131.156802 
L 427.631267 102.801271 
L 429.002274 143.326559 
L 430.373282 138.27611 
L 431.744289 113.936598 
L 433.115296 165.658061 
L 434.486304 113.936598 
L 435.857311 159.573183 
L 437.228318 120.021476 
L 438.599326 95.681963 
L 439.970333 92.639524 
L 441.341341 129.148793 
L 442.712348 138.27611 
L 444.083355 107.85172 
L 445.454363 120.021476 
L 446.82537 156.530744 
L 448.196377 135.233671 
L 449.567385 92.639524 
L 450.938392 74.38489 
L 452.3094 74.38489 
L 453.680407 80.469768 
L 455.051414 68.300012 
L 456.422422 123.063915 
L 457.793429 74.38489 
L 459.164436 123.063915 
L 460.535444 116.979037 
L 461.906451 129.148793 
L 463.277459 129.148793 
L 464.648466 153.488305 
L 464.648466 153.488305 
" clip-path="url(#p4f7b6c0001)" style="fill: none; stroke: #0072b2; stroke-width: 2; stroke-linecap: square"/>
   </g>
   <g id="patch_6">
    <path d="M 38.539375 293.4405 
L 38.539375 43.9605 
" style="fill: none; stroke: #000000; stroke-width: 0.8; stroke-linejoin: miter; stroke-linecap: square"/>
   </g>
   <g id="patch_7">
    <path d="M 484.939375 293.4405 
L 484.939375 43.9605 
" style="fill: none; stroke: #000000; stroke-width: 0.8; stroke-linejoin: miter; stroke-linecap: square"/>
   </g>
   <g id="patch_8">
    <path d="M 38.539375 293.4405 
L 484.939375 293.4405 
" style="fill: none; stroke: #000000; stroke-width: 0.8; stroke-linejoin: miter; stroke-linecap: square"/>
   </g>
   <g id="patch_9">
    <path d="M 38.539375 43.9605 
L 484.939375 43.9605 
" style="fill: none; stroke: #000000; stroke-width: 0.8; stroke-linejoin: miter; stroke-linecap: square"/>
   </g>
   <g id="text_19">
    <!-- Per-Base Sequence Quality Distribution -->
    <g transform="translate(156.024063 15.943125) scale(0.12 -0.12)">
     <defs>
      <path id="ArialMT-2d" d="M 203 1375 
L 203 1941 
L 1931 1941 
L 1931 1375 
L 203 1375 
z
" transform="scale(0.015625)"/>
      <path id="ArialMT-71" d="M 2538 -1272 
L 2538 353 
Q 2406 169 2170 47 
Q 1934 -75 1669 -75 
Q 1078 -75 651 397 
Q 225 869 225 1691 
Q 225 2191 398 2587 
Q 572 2984 901 3189 
Q 1231 3394 1625 3394 
Q 2241 3394 2594 2875 
L 2594 3319 
L 3100 3319 
L 3100 -1272 
L 2538 -1272 
z
M 803 1669 
Q 803 1028 1072 708 
Q 1341 388 1716 388 
Q 2075 388 2334 692 
Q 2594 997 2594 1619 
Q 2594 2281 2320 2615 
Q 2047 2950 1678 2950 
Q 1313 2950 1058 2639 
Q 803 2328 803 1669 
z
" transform="scale(0.015625)"/>
      <path id="ArialMT-44" d="M 494 0 
L 494 4581 
L 2072 4581 
Q 2606 4581 2888 4516 
Q 3281 4425 3559 4188 
Q 3922 3881 4101 3404 
Q 4281 2928 4281 2316 
Q 4281 1794 4159 1391 
Q 4038 988 3847 723 
Q 3656 459 3429 307 
Q 3203 156 2883 78 
Q 2563 0 2147 0 
L 494 0 
z
M 1100 541 
L 2078 541 
Q 2531 541 2789 625 
Q 3047 709 3200 863 
Q 3416 1078 3536 1442 
Q 3656 1806 3656 2325 
Q 3656 3044 3420 3430 
Q 3184 3816 2847 3947 
Q 2603 4041 2063 4041 
L 1100 4041 
L 1100 541 
z
" transform="scale(0.015625)"/>
     </defs>
     <use xlink:href="#ArialMT-50"/>
     <use xlink:href="#ArialMT-65" transform="translate(66.699219 0)"/>
     <use xlink:href="#ArialMT-72" transform="translate(122.314453 0)"/>
     <use xlink:href="#ArialMT-2d" transform="translate(155.615234 0)"/>
     <use xlink:href="#ArialMT-42" transform="translate(188.916016 0)"/>
     <use xlink:href="#ArialMT-61" transform="translate(255.615234 0)"/>
     <use xlink:href="#ArialMT-73" transform="translate(311.230469 0)"/>
     <use xlink:href="#ArialMT-65" transform="translate(361.230469 0)"/>
     <use xlink:href="#ArialMT-20" transform="translate(416.845703 0)"/>
     <use xlink:href="#ArialMT-53" transform="translate(444.628906 0)"/>
     <use xlink:href="#ArialMT-65" transform="translate(511.328125 0)"/>
     <use xlink:href="#ArialMT-71" transform="translate(566.943359 0)"/>
     <use xlink:href="#ArialMT-75" transform="translate(622.558594 0)"/>
     <use xlink:href="#ArialMT-65" transform="translate(678.173828 0)"/>
     <use xlink:href="#ArialMT-6e" transform="translate(733.789062 0)"/>
     <use xlink:href="#ArialMT-63" transform="translate(789.404297 0)"/>
     <use xlink:href="#ArialMT-65" transform="translate(839.404297 0)"/>
     <use xlink:href="#ArialMT-20" transform="translate(895.019531 0)"/>
     <use xlink:href="#ArialMT-51" transform="translate(922.802734 0)"/>
     <use xlink:href="#ArialMT-75" transform="translate(1000.585938 0)"/>
     <use xlink:href="#ArialMT-61" transform="translate(1056.201172 0)"/>
     <use xlink:href="#ArialMT-6c" transform="translate(1111.816406 0)"/>
     <use xlink:href="#ArialMT-69" transform="translate(1134.033203 0)"/>
     <use xlink:href="#ArialMT-74" transform="translate(1156.25 0)"/>
     <use xlink:href="#ArialMT-79" transform="translate(1184.033203 0)"/>
     <use xlink:href="#ArialMT-20" transform="translate(1234.033203 0)"/>
     <use xlink:href="#ArialMT-44" transform="translate(1261.816406 0)"/>
     <use xlink:href="#ArialMT-69" transform="translate(1334.033203 0)"/>
     <use xlink:href="#ArialMT-73" transform="translate(1356.25 0)"/>
     <use xlink:href="#ArialMT-74" transform="translate(1406.25 0)"/>
     <use xlink:href="#ArialMT-72" transform="translate(1434.033203 0)"/>
     <use xlink:href="#ArialMT-69" transform="translate(1467.333984 0)"/>
     <use xlink:href="#ArialMT-62" transform="translate(1489.550781 0)"/>
     <use xlink:href="#ArialMT-75" transform="translate(1545.166016 0)"/>
     <use xlink:href="#ArialMT-74" transform="translate(1600.78125 0)"/>
     <use xlink:href="#ArialMT-69" transform="translate(1628.564453 0)"/>
     <use xlink:href="#ArialMT-6f" transform="translate(1650.78125 0)"/>
     <use xlink:href="#ArialMT-6e" transform="translate(1706.396484 0)"/>
    </g>
    <!-- (Line shows mean Phred Q scores across query reads) -->
    <g transform="translate(115.01875 28.9605) scale(0.12 -0.12)">
     <defs>
      <path id="ArialMT-4c" d="M 469 0 
L 469 4581 
L 1075 4581 
L 1075 541 
L 3331 541 
L 3331 0 
L 469 0 
z
" transform="scale(0.015625)"/>
      <path id="ArialMT-77" d="M 1034 0 
L 19 3319 
L 600 3319 
L 1128 1403 
L 1325 691 
Q 1338 744 1497 1375 
L 2025 3319 
L 2603 3319 
L 3100 1394 
L 3266 759 
L 3456 1400 
L 4025 3319 
L 4572 3319 
L 3534 0 
L 2950 0 
L 2422 1988 
L 2294 2553 
L 1622 0 
L 1034 0 
z
" transform="scale(0.015625)"/>
      <path id="ArialMT-6d" d="M 422 0 
L 422 3319 
L 925 3319 
L 925 2853 
Q 1081 3097 1340 3245 
Q 1600 3394 1931 3394 
Q 2300 3394 2536 3241 
Q 2772 3088 2869 2813 
Q 3263 3394 3894 3394 
Q 4388 3394 4653 3120 
Q 4919 2847 4919 2278 
L 4919 0 
L 4359 0 
L 4359 2091 
Q 4359 2428 4304 2576 
Q 4250 2725 4106 2815 
Q 3963 2906 3769 2906 
Q 3419 2906 3187 2673 
Q 2956 2441 2956 1928 
L 2956 0 
L 2394 0 
L 2394 2156 
Q 2394 2531 2256 2718 
Q 2119 2906 1806 2906 
Q 1569 2906 1367 2781 
Q 1166 2656 1075 2415 
Q 984 2175 984 1722 
L 984 0 
L 422 0 
z
" transform="scale(0.015625)"/>
     </defs>
     <use xlink:href="#ArialMT-28"/>
     <use xlink:href="#ArialMT-4c" transform="translate(33.300781 0)"/>
     <use xlink:href="#ArialMT-69" transform="translate(88.916016 0)"/>
     <use xlink:href="#ArialMT-6e" transform="translate(111.132812 0)"/>
     <use xlink:href="#ArialMT-65" transform="translate(166.748047 0)"/>
     <use xlink:href="#ArialMT-20" transform="translate(222.363281 0)"/>
     <use xlink:href="#ArialMT-73" transform="translate(250.146484 0)"/>
     <use xlink:href="#ArialMT-68" transform="translate(300.146484 0)"/>
     <use xlink:href="#ArialMT-6f" transform="translate(355.761719 0)"/>
     <use xlink:href="#ArialMT-77" transform="translate(411.376953 0)"/>
     <use xlink:href="#ArialMT-73" transform="translate(483.59375 0)"/>
     <use xlink:href="#ArialMT-20" transform="translate(533.59375 0)"/>
     <use xlink:href="#ArialMT-6d" transform="translate(561.376953 0)"/>
     <use xlink:href="#ArialMT-65" transform="translate(644.677734 0)"/>
     <use xlink:href="#ArialMT-61" transform="translate(700.292969 0)"/>
     <use xlink:href="#ArialMT-6e" transform="translate(755.908203 0)"/>
     <use xlink:href="#ArialMT-20" transform="translate(811.523438 0)"/>
     <use xlink:href="#ArialMT-50" transform="translate(839.306641 0)"/>
     <use xlink:href="#ArialMT-68" transform="translate(906.005859 0)"/>
     <use xlink:href="#ArialMT-72" transform="translate(961.621094 0)"/>
     <use xlink:href="#ArialMT-65" transform="translate(994.921875 0)"/>
     <use xlink:href="#ArialMT-64" transform="translate(1050.537109 0)"/>
     <use xlink:href="#ArialMT-20" transform="translate(1106.152344 0)"/>
     <use xlink:href="#ArialMT-51" transform="translate(1133.935547 0)"/>
     <use xlink:href="#ArialMT-20" transform="translate(1211.71875 0)"/>
     <use xlink:href="#ArialMT-73" transform="translate(1239.501953 0)"/>
     <use xlink:href="#ArialMT-63" transform="translate(1289.501953 0)"/>
     <use xlink:href="#ArialMT-6f" transform="translate(1339.501953 0)"/>
     <use xlink:href="#ArialMT-72" transform="translate(1395.117188 0)"/>
     <use xlink:href="#ArialMT-65" transform="translate(1428.417969 0)"/>
     <use xlink:href="#ArialMT-73" transform="translate(1484.033203 0)"/>
     <use xlink:href="#ArialMT-20" transform="translate(1534.033203 0)"/>
     <use xlink:href="#ArialMT-61" transform="translate(1561.816406 0)"/>
     <use xlink:href="#ArialMT-63" transform="translate(1617.431641 0)"/>
     <use xlink:href="#ArialMT-72" transform="translate(1667.431641 0)"/>
     <use xlink:href="#ArialMT-6f" transform="translate(1700.732422 0)"/>
     <use xlink:href="#ArialMT-73" transform="translate(1756.347656 0)"/>
     <use xlink:href="#ArialMT-73" transform="translate(1806.347656 0)"/>
     <use xlink:href="#ArialMT-20" transform="translate(1856.347656 0)"/>
     <use xlink:href="#ArialMT-71" transform="translate(1884.130859 0)"/>
     <use xlink:href="#ArialMT-75" transform="translate(1939.746094 0)"/>
     <use xlink:href="#ArialMT-65" transform="translate(1995.361328 0)"/>
     <use xlink:href="#ArialMT-72" transform="translate(2050.976562 0)"/>
     <use xlink:href="#ArialMT-79" transform="translate(2084.277344 0)"/>
     <use xlink:href="#ArialMT-20" transform="translate(2134.277344 0)"/>
     <use xlink:href="#ArialMT-72" transform="translate(2162.060547 0)"/>
     <use xlink:href="#ArialMT-65" transform="translate(2195.361328 0)"/>
     <use xlink:href="#ArialMT-61" transform="translate(2250.976562 0)"/>
     <use xlink:href="#ArialMT-64" transform="translate(2306.591797 0)"/>
     <use xlink:href="#ArialMT-73" transform="translate(2362.207031 0)"/>
     <use xlink:href="#ArialMT-29" transform="translate(2412.207031 0)"/>
    </g>
   </g>
   <g id="legend_1">
    <g id="patch_10">
     <path d="M 44.839375 288.9405 
L 130.654375 288.9405 
Q 132.454375 288.9405 132.454375 287.1405 
L 132.454375 275.309719 
Q 132.454375 273.509719 130.654375 273.509719 
L 44.839375 273.509719 
Q 43.039375 273.509719 43.039375 275.309719 
L 43.039375 287.1405 
Q 43.039375 288.9405 44.839375 288.9405 
z
" style="fill: #ffffff; opacity: 0.8; stroke: #cccccc; stroke-linejoin: miter"/>
    </g>
    <g id="line2d_34">
     <path d="M 46.639375 280.40175 
L 55.639375 280.40175 
L 64.639375 280.40175 
" style="fill: none; stroke: #0072b2; stroke-width: 2; stroke-linecap: square"/>
    </g>
    <g id="text_20">
     <!-- Mean Q-score -->
     <g transform="translate(71.839375 283.55175) scale(0.09 -0.09)">
      <defs>
       <path id="ArialMT-4d" d="M 475 0 
L 475 4581 
L 1388 4581 
L 2472 1338 
Q 2622 884 2691 659 
Q 2769 909 2934 1394 
L 4031 4581 
L 4847 4581 
L 4847 0 
L 4263 0 
L 4263 3834 
L 2931 0 
L 2384 0 
L 1059 3900 
L 1059 0 
L 475 0 
z
" transform="scale(0.015625)"/>
      </defs>
      <use xlink:href="#ArialMT-4d"/>
      <use xlink:href="#ArialMT-65" transform="translate(83.300781 0)"/>
      <use xlink:href="#ArialMT-61" transform="translate(138.916016 0)"/>
      <use xlink:href="#ArialMT-6e" transform="translate(194.53125 0)"/>
      <use xlink:href="#ArialMT-20" transform="translate(250.146484 0)"/>
      <use xlink:href="#ArialMT-51" transform="translate(277.929688 0)"/>
      <use xlink:href="#ArialMT-2d" transform="translate(355.712891 0)"/>
      <use xlink:href="#ArialMT-73" transform="translate(389.013672 0)"/>
      <use xlink:href="#ArialMT-63" transform="translate(439.013672 0)"/>
      <use xlink:href="#ArialMT-6f" transform="translate(489.013672 0)"/>
      <use xlink:href="#ArialMT-72" transform="translate(544.628906 0)"/>
      <use xlink:href="#ArialMT-65" transform="translate(577.929688 0)"/>
     </g>
    </g>
   </g>
  </g>
  <g id="text_21">
   <!-- Pipeline: PathoScope AI Default Run v1.0.0 | Date: 2026-05-31 | License: Academic Free | Auditable Open Science -->
   <g style="fill: #777777" transform="translate(63.602852 322.641984) scale(0.075 -0.075)">
    <defs>
     <path id="Arial-ItalicMT-50" d="M 275 0 
L 1234 4581 
L 3147 4581 
Q 3644 4581 3892 4467 
Q 4141 4353 4303 4076 
Q 4466 3800 4466 3456 
Q 4466 3172 4350 2878 
Q 4234 2584 4057 2393 
Q 3881 2203 3700 2106 
Q 3519 2009 3313 1963 
Q 2872 1859 2422 1859 
L 1275 1859 
L 888 0 
L 275 0 
z
M 1384 2378 
L 2394 2378 
Q 2981 2378 3256 2504 
Q 3531 2631 3697 2890 
Q 3863 3150 3863 3441 
Q 3863 3666 3775 3808 
Q 3688 3950 3528 4017 
Q 3369 4084 2916 4084 
L 1741 4084 
L 1384 2378 
z
" transform="scale(0.015625)"/>
     <path id="Arial-ItalicMT-69" d="M 1016 3941 
L 1150 4581 
L 1713 4581 
L 1578 3941 
L 1016 3941 
z
M 191 0 
L 884 3319 
L 1450 3319 
L 756 0 
L 191 0 
z
" transform="scale(0.015625)"/>
     <path id="Arial-ItalicMT-70" d="M -66 -1272 
L 894 3319 
L 1416 3319 
L 1319 2856 
Q 1609 3159 1839 3276 
Q 2069 3394 2325 3394 
Q 2800 3394 3112 3048 
Q 3425 2703 3425 2059 
Q 3425 1541 3253 1114 
Q 3081 688 2831 428 
Q 2581 169 2325 47 
Q 2069 -75 1800 -75 
Q 1203 -75 875 531 
L 500 -1272 
L -66 -1272 
z
M 1053 1356 
Q 1053 984 1106 841 
Q 1184 638 1362 513 
Q 1541 388 1775 388 
Q 2263 388 2563 936 
Q 2863 1484 2863 2056 
Q 2863 2478 2661 2708 
Q 2459 2938 2159 2938 
Q 1944 2938 1759 2823 
Q 1575 2709 1417 2482 
Q 1259 2256 1156 1928 
Q 1053 1600 1053 1356 
z
" transform="scale(0.015625)"/>
     <path id="Arial-ItalicMT-65" d="M 2650 1128 
L 3200 1072 
Q 3081 663 2654 294 
Q 2228 -75 1638 -75 
Q 1269 -75 961 95 
Q 653 266 492 591 
Q 331 916 331 1331 
Q 331 1875 582 2386 
Q 834 2897 1234 3145 
Q 1634 3394 2100 3394 
Q 2694 3394 3048 3025 
Q 3403 2656 3403 2019 
Q 3403 1775 3359 1519 
L 916 1519 
Q 903 1422 903 1344 
Q 903 878 1117 633 
Q 1331 388 1641 388 
Q 1931 388 2212 578 
Q 2494 769 2650 1128 
z
M 1006 1950 
L 2869 1950 
Q 2872 2038 2872 2075 
Q 2872 2500 2659 2726 
Q 2447 2953 2113 2953 
Q 1750 2953 1451 2703 
Q 1153 2453 1006 1950 
z
" transform="scale(0.015625)"/>
     <path id="Arial-ItalicMT-6c" d="M 169 0 
L 1125 4581 
L 1691 4581 
L 734 0 
L 169 0 
z
" transform="scale(0.015625)"/>
     <path id="Arial-ItalicMT-6e" d="M 213 0 
L 906 3319 
L 1419 3319 
L 1297 2741 
Q 1631 3081 1922 3237 
Q 2213 3394 2516 3394 
Q 2919 3394 3148 3175 
Q 3378 2956 3378 2591 
Q 3378 2406 3297 2009 
L 2875 0 
L 2309 0 
L 2750 2103 
Q 2816 2409 2816 2556 
Q 2816 2722 2702 2825 
Q 2588 2928 2372 2928 
Q 1938 2928 1598 2615 
Q 1259 2303 1100 1544 
L 778 0 
L 213 0 
z
" transform="scale(0.015625)"/>
     <path id="Arial-ItalicMT-3a" d="M 925 2678 
L 1059 3319 
L 1697 3319 
L 1566 2678 
L 925 2678 
z
M 366 0 
L 500 641 
L 1141 641 
L 1003 0 
L 366 0 
z
" transform="scale(0.015625)"/>
     <path id="Arial-ItalicMT-20" transform="scale(0.015625)"/>
     <path id="Arial-ItalicMT-61" d="M 2450 413 
Q 2156 159 1884 42 
Q 1613 -75 1303 -75 
Q 844 -75 562 195 
Q 281 466 281 888 
Q 281 1166 407 1380 
Q 534 1594 743 1723 
Q 953 1853 1256 1909 
Q 1447 1947 1980 1969 
Q 2513 1991 2744 2081 
Q 2809 2313 2809 2466 
Q 2809 2663 2666 2775 
Q 2469 2931 2091 2931 
Q 1734 2931 1507 2773 
Q 1281 2616 1178 2325 
L 606 2375 
Q 781 2869 1161 3131 
Q 1541 3394 2119 3394 
Q 2734 3394 3094 3100 
Q 3369 2881 3369 2531 
Q 3369 2266 3291 1916 
L 3106 1091 
Q 3019 697 3019 450 
Q 3019 294 3088 0 
L 2516 0 
Q 2469 163 2450 413 
z
M 2659 1681 
Q 2541 1634 2405 1609 
Q 2269 1584 1950 1556 
Q 1456 1513 1253 1445 
Q 1050 1378 947 1231 
Q 844 1084 844 906 
Q 844 669 1008 516 
Q 1172 363 1475 363 
Q 1756 363 2015 511 
Q 2275 659 2425 925 
Q 2575 1191 2659 1681 
z
" transform="scale(0.015625)"/>
     <path id="Arial-ItalicMT-74" d="M 1534 459 
L 1441 -3 
Q 1238 -56 1047 -56 
Q 709 -56 509 109 
Q 359 234 359 450 
Q 359 559 441 953 
L 844 2881 
L 397 2881 
L 488 3319 
L 934 3319 
L 1106 4134 
L 1753 4525 
L 1500 3319 
L 2056 3319 
L 1963 2881 
L 1409 2881 
L 1025 1047 
Q 953 697 953 628 
Q 953 528 1011 475 
Q 1069 422 1200 422 
Q 1388 422 1534 459 
z
" transform="scale(0.015625)"/>
     <path id="Arial-ItalicMT-68" d="M 213 0 
L 1169 4581 
L 1734 4581 
L 1369 2822 
Q 1684 3128 1956 3261 
Q 2228 3394 2516 3394 
Q 2928 3394 3156 3176 
Q 3384 2959 3384 2603 
Q 3384 2428 3284 1959 
L 2875 0 
L 2309 0 
L 2731 2009 
Q 2822 2447 2822 2559 
Q 2822 2722 2709 2825 
Q 2597 2928 2384 2928 
Q 2078 2928 1800 2767 
Q 1522 2606 1364 2326 
Q 1206 2047 1075 1425 
L 778 0 
L 213 0 
z
" transform="scale(0.015625)"/>
     <path id="Arial-ItalicMT-6f" d="M 313 1259 
Q 313 2231 884 2869 
Q 1356 3394 2122 3394 
Q 2722 3394 3089 3019 
Q 3456 2644 3456 2006 
Q 3456 1434 3225 942 
Q 2994 450 2567 187 
Q 2141 -75 1669 -75 
Q 1281 -75 964 90 
Q 647 256 480 559 
Q 313 863 313 1259 
z
M 878 1316 
Q 878 847 1103 605 
Q 1328 363 1675 363 
Q 1856 363 2034 436 
Q 2213 509 2366 659 
Q 2519 809 2626 1001 
Q 2734 1194 2800 1416 
Q 2897 1725 2897 2009 
Q 2897 2459 2670 2707 
Q 2444 2956 2100 2956 
Q 1834 2956 1615 2829 
Q 1397 2703 1220 2459 
Q 1044 2216 961 1892 
Q 878 1569 878 1316 
z
" transform="scale(0.015625)"/>
     <path id="Arial-ItalicMT-53" d="M 450 1481 
L 1050 1538 
L 1044 1378 
Q 1044 1113 1166 892 
Q 1288 672 1569 551 
Q 1850 431 2238 431 
Q 2788 431 3077 672 
Q 3366 913 3366 1222 
Q 3366 1438 3213 1616 
Q 3056 1791 2359 2091 
Q 1819 2325 1622 2450 
Q 1313 2653 1166 2892 
Q 1019 3131 1019 3438 
Q 1019 3791 1212 4075 
Q 1406 4359 1779 4509 
Q 2153 4659 2622 4659 
Q 3181 4659 3565 4471 
Q 3950 4284 4123 3971 
Q 4297 3659 4297 3375 
Q 4297 3347 4294 3281 
L 3703 3234 
Q 3703 3428 3669 3538 
Q 3606 3728 3475 3859 
Q 3344 3991 3114 4070 
Q 2884 4150 2600 4150 
Q 2100 4150 1822 3925 
Q 1609 3753 1609 3469 
Q 1609 3300 1696 3167 
Q 1784 3034 2013 2906 
Q 2175 2816 2784 2547 
Q 3278 2328 3466 2203 
Q 3716 2038 3850 1802 
Q 3984 1566 3984 1266 
Q 3984 894 3757 580 
Q 3531 266 3131 94 
Q 2731 -78 2216 -78 
Q 1438 -78 945 261 
Q 453 600 450 1481 
z
" transform="scale(0.015625)"/>
     <path id="Arial-ItalicMT-63" d="M 2503 1209 
L 3069 1150 
Q 2856 528 2464 226 
Q 2072 -75 1572 -75 
Q 1031 -75 695 275 
Q 359 625 359 1253 
Q 359 1797 575 2322 
Q 791 2847 1192 3120 
Q 1594 3394 2109 3394 
Q 2644 3394 2956 3092 
Q 3269 2791 3269 2294 
L 2713 2256 
Q 2709 2572 2529 2750 
Q 2350 2928 2056 2928 
Q 1716 2928 1466 2712 
Q 1216 2497 1073 2058 
Q 931 1619 931 1213 
Q 931 788 1118 575 
Q 1306 363 1581 363 
Q 1856 363 2107 572 
Q 2359 781 2503 1209 
z
" transform="scale(0.015625)"/>
     <path id="Arial-ItalicMT-41" d="M -128 0 
L 2469 4581 
L 3191 4581 
L 3947 0 
L 3353 0 
L 3131 1319 
L 1278 1319 
L 544 0 
L -128 0 
z
M 1541 1791 
L 3056 1791 
L 2878 2941 
Q 2775 3625 2750 4081 
Q 2594 3688 2294 3147 
L 1541 1791 
z
" transform="scale(0.015625)"/>
     <path id="Arial-ItalicMT-49" d="M 366 0 
L 1325 4581 
L 1934 4581 
L 978 0 
L 366 0 
z
" transform="scale(0.015625)"/>
     <path id="Arial-ItalicMT-44" d="M 284 0 
L 1241 4581 
L 2622 4581 
Q 3119 4581 3381 4509 
Q 3756 4413 4022 4164 
Q 4288 3916 4422 3544 
Q 4556 3172 4556 2709 
Q 4556 2156 4389 1701 
Q 4222 1247 3951 901 
Q 3681 556 3386 361 
Q 3091 166 2688 72 
Q 2381 0 1934 0 
L 284 0 
z
M 1006 519 
L 1731 519 
Q 2222 519 2603 609 
Q 2841 666 3009 775 
Q 3231 916 3413 1147 
Q 3650 1453 3792 1845 
Q 3934 2238 3934 2738 
Q 3934 3294 3740 3592 
Q 3547 3891 3247 3988 
Q 3025 4059 2556 4059 
L 1747 4059 
L 1006 519 
z
" transform="scale(0.015625)"/>
     <path id="Arial-ItalicMT-66" d="M 291 0 
L 894 2881 
L 388 2881 
L 478 3319 
L 984 3319 
L 1081 3791 
Q 1156 4144 1236 4300 
Q 1316 4456 1495 4557 
Q 1675 4659 1984 4659 
Q 2200 4659 2609 4569 
L 2506 4075 
Q 2219 4150 2025 4150 
Q 1859 4150 1773 4067 
Q 1688 3984 1625 3675 
L 1550 3319 
L 2181 3319 
L 2091 2881 
L 1459 2881 
L 856 0 
L 291 0 
z
" transform="scale(0.015625)"/>
     <path id="Arial-ItalicMT-75" d="M 2478 600 
Q 1881 -75 1256 -75 
Q 872 -75 636 145 
Q 400 366 400 684 
Q 400 894 506 1403 
L 906 3319 
L 1472 3319 
L 1028 1197 
Q 972 931 972 784 
Q 972 597 1086 492 
Q 1200 388 1422 388 
Q 1659 388 1886 503 
Q 2113 619 2277 816 
Q 2441 1013 2544 1281 
Q 2613 1453 2703 1884 
L 3003 3319 
L 3569 3319 
L 2875 0 
L 2353 0 
L 2478 600 
z
" transform="scale(0.015625)"/>
     <path id="Arial-ItalicMT-52" d="M 300 0 
L 1259 4581 
L 3181 4581 
Q 3750 4581 4044 4486 
Q 4338 4391 4505 4128 
Q 4672 3866 4672 3466 
Q 4672 2906 4306 2537 
Q 3941 2169 3125 2059 
Q 3375 1875 3503 1697 
Q 3791 1294 3966 863 
L 4316 0 
L 3631 0 
L 3303 853 
Q 3125 1316 2897 1653 
Q 2741 1888 2578 1961 
Q 2416 2034 2050 2034 
L 1338 2034 
L 913 0 
L 300 0 
z
M 1441 2531 
L 2288 2531 
Q 2875 2531 3053 2547 
Q 3400 2581 3622 2703 
Q 3844 2825 3966 3031 
Q 4088 3238 4088 3475 
Q 4088 3675 3997 3823 
Q 3906 3972 3759 4025 
Q 3613 4078 3259 4078 
L 1766 4078 
L 1441 2531 
z
" transform="scale(0.015625)"/>
     <path id="Arial-ItalicMT-76" d="M 1050 0 
L 506 3319 
L 1056 3319 
L 1341 1491 
Q 1388 1191 1456 513 
Q 1619 866 1872 1322 
L 2981 3319 
L 3578 3319 
L 1678 0 
L 1050 0 
z
" transform="scale(0.015625)"/>
     <path id="Arial-ItalicMT-31" d="M 1541 0 
L 2266 3459 
Q 1797 3091 947 2869 
L 1053 3381 
Q 1475 3550 1886 3822 
Q 2297 4094 2503 4297 
Q 2628 4422 2741 4600 
L 3069 4600 
L 2109 0 
L 1541 0 
z
" transform="scale(0.015625)"/>
     <path id="Arial-ItalicMT-2e" d="M 369 0 
L 503 641 
L 1144 641 
L 1006 0 
L 369 0 
z
" transform="scale(0.015625)"/>
     <path id="Arial-ItalicMT-30" d="M 453 1503 
Q 453 2084 626 2684 
Q 800 3284 1012 3643 
Q 1225 4003 1453 4206 
Q 1681 4409 1901 4504 
Q 2122 4600 2391 4600 
Q 2916 4600 3267 4209 
Q 3619 3819 3619 3081 
Q 3619 2322 3375 1578 
Q 3088 697 2575 256 
Q 2181 -78 1678 -78 
Q 1163 -78 808 326 
Q 453 731 453 1503 
z
M 1000 1359 
Q 1000 938 1141 700 
Q 1331 372 1706 372 
Q 2034 372 2303 669 
Q 2691 1088 2886 1895 
Q 3081 2703 3081 3216 
Q 3081 3709 2892 3928 
Q 2703 4147 2394 4147 
Q 2169 4147 1973 4031 
Q 1778 3916 1600 3634 
Q 1347 3238 1159 2447 
Q 1000 1772 1000 1359 
z
" transform="scale(0.015625)"/>
     <path id="Arial-ItalicMT-7c" d="M 588 -1347 
L 588 4659 
L 1078 4659 
L 1078 -1347 
L 588 -1347 
z
" transform="scale(0.015625)"/>
     <path id="Arial-ItalicMT-32" d="M 375 0 
Q 463 409 617 686 
Q 772 963 1028 1211 
Q 1284 1459 2016 2044 
Q 2459 2397 2622 2566 
Q 2856 2809 2963 3044 
Q 3034 3203 3034 3391 
Q 3034 3706 2811 3926 
Q 2588 4147 2263 4147 
Q 1941 4147 1700 3923 
Q 1459 3700 1356 3206 
L 803 3288 
Q 884 3897 1276 4248 
Q 1669 4600 2253 4600 
Q 2644 4600 2961 4437 
Q 3278 4275 3437 3981 
Q 3597 3688 3597 3375 
Q 3597 2919 3272 2497 
Q 3072 2234 2097 1463 
Q 1678 1131 1473 918 
Q 1269 706 1166 519 
L 3216 519 
L 3106 0 
L 375 0 
z
" transform="scale(0.015625)"/>
     <path id="Arial-ItalicMT-36" d="M 1288 2656 
Q 1525 2853 1761 2951 
Q 1997 3050 2228 3050 
Q 2750 3050 3090 2694 
Q 3431 2338 3431 1734 
Q 3431 956 2925 400 
Q 2488 -78 1863 -78 
Q 1294 -78 914 339 
Q 534 756 534 1528 
Q 534 2219 778 2956 
Q 966 3522 1242 3889 
Q 1519 4256 1830 4428 
Q 2141 4600 2531 4600 
Q 3000 4600 3297 4308 
Q 3594 4016 3634 3472 
L 3109 3422 
Q 3066 3794 2898 3959 
Q 2731 4125 2491 4125 
Q 2238 4125 1981 3928 
Q 1725 3731 1540 3345 
Q 1356 2959 1288 2656 
z
M 1091 1288 
Q 1091 900 1331 636 
Q 1572 372 1875 372 
Q 2088 372 2325 533 
Q 2563 694 2728 1022 
Q 2894 1350 2894 1675 
Q 2894 2094 2664 2345 
Q 2434 2597 2109 2597 
Q 1734 2597 1412 2230 
Q 1091 1863 1091 1288 
z
" transform="scale(0.015625)"/>
     <path id="Arial-ItalicMT-2d" d="M 297 1375 
L 416 1941 
L 2141 1941 
L 2025 1375 
L 297 1375 
z
" transform="scale(0.015625)"/>
     <path id="Arial-ItalicMT-35" d="M 447 1309 
L 1022 1366 
Q 1016 1244 1016 1219 
Q 1016 1013 1120 803 
Q 1225 594 1404 483 
Q 1584 372 1784 372 
Q 2047 372 2319 553 
Q 2591 734 2759 1081 
Q 2928 1428 2928 1769 
Q 2928 2153 2701 2384 
Q 2475 2616 2106 2616 
Q 1859 2616 1639 2497 
Q 1419 2378 1228 2141 
L 734 2175 
L 1425 4519 
L 3663 4519 
L 3553 4000 
L 1813 4000 
L 1469 2834 
Q 1663 2975 1867 3045 
Q 2072 3116 2288 3116 
Q 2813 3116 3150 2769 
Q 3488 2422 3488 1819 
Q 3488 1291 3256 845 
Q 3025 400 2620 161 
Q 2216 -78 1747 -78 
Q 1353 -78 1050 100 
Q 747 278 595 590 
Q 444 903 444 1216 
Q 444 1247 447 1309 
z
" transform="scale(0.015625)"/>
     <path id="Arial-ItalicMT-33" d="M 350 1200 
L 900 1269 
Q 963 788 1177 580 
Q 1391 372 1738 372 
Q 2156 372 2461 672 
Q 2766 972 2766 1359 
Q 2766 1697 2537 1917 
Q 2309 2138 1925 2138 
Q 1881 2138 1744 2125 
L 1841 2597 
Q 1922 2584 1997 2584 
Q 2481 2584 2742 2820 
Q 3003 3056 3003 3400 
Q 3003 3716 2789 3931 
Q 2575 4147 2266 4147 
Q 1963 4147 1720 3926 
Q 1478 3706 1409 3303 
L 853 3416 
Q 991 3981 1381 4290 
Q 1772 4600 2306 4600 
Q 2869 4600 3217 4259 
Q 3566 3919 3566 3422 
Q 3566 3059 3377 2789 
Q 3188 2519 2809 2341 
Q 3078 2181 3211 1956 
Q 3344 1731 3344 1441 
Q 3344 825 2883 373 
Q 2422 -78 1781 -78 
Q 1159 -78 776 270 
Q 394 619 350 1200 
z
" transform="scale(0.015625)"/>
     <path id="Arial-ItalicMT-4c" d="M 256 0 
L 1213 4581 
L 1825 4581 
L 978 519 
L 3356 519 
L 3247 0 
L 256 0 
z
" transform="scale(0.015625)"/>
     <path id="Arial-ItalicMT-73" d="M 266 1134 
L 831 1169 
Q 831 925 906 753 
Q 981 581 1182 472 
Q 1384 363 1653 363 
Q 2028 363 2215 513 
Q 2403 663 2403 866 
Q 2403 1013 2291 1144 
Q 2175 1275 1726 1467 
Q 1278 1659 1153 1738 
Q 944 1866 837 2039 
Q 731 2213 731 2438 
Q 731 2831 1043 3112 
Q 1356 3394 1919 3394 
Q 2544 3394 2870 3105 
Q 3197 2816 3209 2344 
L 2656 2306 
Q 2644 2606 2444 2781 
Q 2244 2956 1878 2956 
Q 1584 2956 1421 2822 
Q 1259 2688 1259 2531 
Q 1259 2375 1400 2256 
Q 1494 2175 1884 2006 
Q 2534 1725 2703 1563 
Q 2972 1303 2972 931 
Q 2972 684 2820 446 
Q 2669 209 2358 67 
Q 2047 -75 1625 -75 
Q 1050 -75 647 209 
Q 244 494 266 1134 
z
" transform="scale(0.015625)"/>
     <path id="Arial-ItalicMT-64" d="M 2450 481 
Q 1966 -75 1438 -75 
Q 966 -75 652 273 
Q 338 622 338 1284 
Q 338 1891 586 2392 
Q 834 2894 1207 3144 
Q 1581 3394 1956 3394 
Q 2575 3394 2891 2797 
L 3266 4581 
L 3828 4581 
L 2872 0 
L 2350 0 
L 2450 481 
z
M 900 1391 
Q 900 1044 969 844 
Q 1038 644 1203 511 
Q 1369 378 1600 378 
Q 1984 378 2297 778 
Q 2716 1309 2716 2091 
Q 2716 2484 2509 2706 
Q 2303 2928 1991 2928 
Q 1788 2928 1620 2837 
Q 1453 2747 1289 2530 
Q 1125 2313 1012 1978 
Q 900 1644 900 1391 
z
" transform="scale(0.015625)"/>
     <path id="Arial-ItalicMT-6d" d="M 209 0 
L 903 3319 
L 1469 3319 
L 1353 2772 
Q 1669 3125 1917 3259 
Q 2166 3394 2456 3394 
Q 2766 3394 2973 3230 
Q 3181 3066 3247 2772 
Q 3500 3084 3779 3239 
Q 4059 3394 4369 3394 
Q 4784 3394 4992 3197 
Q 5200 3000 5200 2644 
Q 5200 2491 5128 2138 
L 4681 0 
L 4116 0 
L 4572 2194 
Q 4631 2463 4631 2578 
Q 4631 2741 4528 2834 
Q 4425 2928 4238 2928 
Q 3984 2928 3721 2775 
Q 3459 2622 3314 2373 
Q 3169 2125 3059 1609 
L 2722 0 
L 2156 0 
L 2625 2241 
Q 2675 2469 2675 2566 
Q 2675 2728 2573 2828 
Q 2472 2928 2309 2928 
Q 2069 2928 1805 2775 
Q 1541 2622 1375 2348 
Q 1209 2075 1103 1569 
L 775 0 
L 209 0 
z
" transform="scale(0.015625)"/>
     <path id="Arial-ItalicMT-46" d="M 291 0 
L 1247 4581 
L 4225 4581 
L 4116 4059 
L 1750 4059 
L 1447 2600 
L 3856 2600 
L 3747 2078 
L 1338 2078 
L 903 0 
L 291 0 
z
" transform="scale(0.015625)"/>
     <path id="Arial-ItalicMT-72" d="M 213 0 
L 906 3319 
L 1406 3319 
L 1266 2641 
Q 1522 3025 1767 3209 
Q 2013 3394 2269 3394 
Q 2438 3394 2684 3272 
L 2453 2747 
Q 2306 2853 2131 2853 
Q 1834 2853 1521 2522 
Q 1209 2191 1031 1331 
L 750 0 
L 213 0 
z
" transform="scale(0.015625)"/>
     <path id="Arial-ItalicMT-62" d="M 213 0 
L 1169 4581 
L 1734 4581 
L 1394 2944 
Q 1663 3191 1881 3292 
Q 2100 3394 2338 3394 
Q 2803 3394 3114 3047 
Q 3425 2700 3425 2038 
Q 3425 1597 3300 1231 
Q 3175 866 2990 617 
Q 2806 369 2609 220 
Q 2413 72 2206 -1 
Q 2000 -75 1809 -75 
Q 1481 -75 1231 98 
Q 981 272 841 628 
L 709 0 
L 213 0 
z
M 1050 1363 
L 1047 1256 
Q 1047 831 1250 609 
Q 1453 388 1756 388 
Q 2053 388 2301 595 
Q 2550 803 2709 1243 
Q 2869 1684 2869 2056 
Q 2869 2475 2667 2706 
Q 2466 2938 2169 2938 
Q 1863 2938 1606 2702 
Q 1350 2466 1178 1975 
Q 1050 1609 1050 1363 
z
" transform="scale(0.015625)"/>
     <path id="Arial-ItalicMT-4f" d="M 584 1919 
Q 584 3144 1292 3901 
Q 2000 4659 3009 4659 
Q 3866 4659 4405 4101 
Q 4944 3544 4944 2606 
Q 4944 1938 4672 1366 
Q 4469 938 4159 627 
Q 3850 316 3497 147 
Q 3028 -78 2503 -78 
Q 1953 -78 1501 184 
Q 1050 447 817 917 
Q 584 1388 584 1919 
z
M 1188 1888 
Q 1188 1484 1355 1146 
Q 1522 809 1853 618 
Q 2184 428 2550 428 
Q 2903 428 3222 595 
Q 3541 763 3792 1061 
Q 4044 1359 4189 1795 
Q 4334 2231 4334 2653 
Q 4334 3338 3951 3744 
Q 3569 4150 3006 4150 
Q 2288 4150 1738 3536 
Q 1188 2922 1188 1888 
z
" transform="scale(0.015625)"/>
    </defs>
    <use xlink:href="#Arial-ItalicMT-50"/>
    <use xlink:href="#Arial-ItalicMT-69" transform="translate(66.699219 0)"/>
    <use xlink:href="#Arial-ItalicMT-70" transform="translate(88.916016 0)"/>
    <use xlink:href="#Arial-ItalicMT-65" transform="translate(144.53125 0)"/>
    <use xlink:href="#Arial-ItalicMT-6c" transform="translate(200.146484 0)"/>
    <use xlink:href="#Arial-ItalicMT-69" transform="translate(222.363281 0)"/>
    <use xlink:href="#Arial-ItalicMT-6e" transform="translate(244.580078 0)"/>
    <use xlink:href="#Arial-ItalicMT-65" transform="translate(300.195312 0)"/>
    <use xlink:href="#Arial-ItalicMT-3a" transform="translate(355.810547 0)"/>
    <use xlink:href="#Arial-ItalicMT-20" transform="translate(383.59375 0)"/>
    <use xlink:href="#Arial-ItalicMT-50" transform="translate(411.376953 0)"/>
    <use xlink:href="#Arial-ItalicMT-61" transform="translate(478.076172 0)"/>
    <use xlink:href="#Arial-ItalicMT-74" transform="translate(533.691406 0)"/>
    <use xlink:href="#Arial-ItalicMT-68" transform="translate(561.474609 0)"/>
    <use xlink:href="#Arial-ItalicMT-6f" transform="translate(617.089844 0)"/>
    <use xlink:href="#Arial-ItalicMT-53" transform="translate(672.705078 0)"/>
    <use xlink:href="#Arial-ItalicMT-63" transform="translate(739.404297 0)"/>
    <use xlink:href="#Arial-ItalicMT-6f" transform="translate(789.404297 0)"/>
    <use xlink:href="#Arial-ItalicMT-70" transform="translate(845.019531 0)"/>
    <use xlink:href="#Arial-ItalicMT-65" transform="translate(900.634766 0)"/>
    <use xlink:href="#Arial-ItalicMT-20" transform="translate(956.25 0)"/>
    <use xlink:href="#Arial-ItalicMT-41" transform="translate(980.283203 0)"/>
    <use xlink:href="#Arial-ItalicMT-49" transform="translate(1046.982422 0)"/>
    <use xlink:href="#Arial-ItalicMT-20" transform="translate(1074.765625 0)"/>
    <use xlink:href="#Arial-ItalicMT-44" transform="translate(1102.548828 0)"/>
    <use xlink:href="#Arial-ItalicMT-65" transform="translate(1174.765625 0)"/>
    <use xlink:href="#Arial-ItalicMT-66" transform="translate(1230.380859 0)"/>
    <use xlink:href="#Arial-ItalicMT-61" transform="translate(1258.164062 0)"/>
    <use xlink:href="#Arial-ItalicMT-75" transform="translate(1313.779297 0)"/>
    <use xlink:href="#Arial-ItalicMT-6c" transform="translate(1369.394531 0)"/>
    <use xlink:href="#Arial-ItalicMT-74" transform="translate(1391.611328 0)"/>
    <use xlink:href="#Arial-ItalicMT-20" transform="translate(1419.394531 0)"/>
    <use xlink:href="#Arial-ItalicMT-52" transform="translate(1447.177734 0)"/>
    <use xlink:href="#Arial-ItalicMT-75" transform="translate(1519.394531 0)"/>
    <use xlink:href="#Arial-ItalicMT-6e" transform="translate(1575.009766 0)"/>
    <use xlink:href="#Arial-ItalicMT-20" transform="translate(1630.625 0)"/>
    <use xlink:href="#Arial-ItalicMT-76" transform="translate(1658.408203 0)"/>
    <use xlink:href="#Arial-ItalicMT-31" transform="translate(1708.408203 0)"/>
    <use xlink:href="#Arial-ItalicMT-2e" transform="translate(1764.023438 0)"/>
    <use xlink:href="#Arial-ItalicMT-30" transform="translate(1791.806641 0)"/>
    <use xlink:href="#Arial-ItalicMT-2e" transform="translate(1847.421875 0)"/>
    <use xlink:href="#Arial-ItalicMT-30" transform="translate(1875.205078 0)"/>
    <use xlink:href="#Arial-ItalicMT-20" transform="translate(1930.820312 0)"/>
    <use xlink:href="#Arial-ItalicMT-7c" transform="translate(1958.603516 0)"/>
    <use xlink:href="#Arial-ItalicMT-20" transform="translate(1984.580078 0)"/>
    <use xlink:href="#Arial-ItalicMT-44" transform="translate(2012.363281 0)"/>
    <use xlink:href="#Arial-ItalicMT-61" transform="translate(2084.580078 0)"/>
    <use xlink:href="#Arial-ItalicMT-74" transform="translate(2140.195312 0)"/>
    <use xlink:href="#Arial-ItalicMT-65" transform="translate(2167.978516 0)"/>
    <use xlink:href="#Arial-ItalicMT-3a" transform="translate(2223.59375 0)"/>
    <use xlink:href="#Arial-ItalicMT-20" transform="translate(2251.376953 0)"/>
    <use xlink:href="#Arial-ItalicMT-32" transform="translate(2279.160156 0)"/>
    <use xlink:href="#Arial-ItalicMT-30" transform="translate(2334.775391 0)"/>
    <use xlink:href="#Arial-ItalicMT-32" transform="translate(2390.390625 0)"/>
    <use xlink:href="#Arial-ItalicMT-36" transform="translate(2446.005859 0)"/>
    <use xlink:href="#Arial-ItalicMT-2d" transform="translate(2501.621094 0)"/>
    <use xlink:href="#Arial-ItalicMT-30" transform="translate(2534.921875 0)"/>
    <use xlink:href="#Arial-ItalicMT-35" transform="translate(2590.537109 0)"/>
    <use xlink:href="#Arial-ItalicMT-2d" transform="translate(2646.152344 0)"/>
    <use xlink:href="#Arial-ItalicMT-33" transform="translate(2679.453125 0)"/>
    <use xlink:href="#Arial-ItalicMT-31" transform="translate(2735.068359 0)"/>
    <use xlink:href="#Arial-ItalicMT-20" transform="translate(2790.683594 0)"/>
    <use xlink:href="#Arial-ItalicMT-7c" transform="translate(2818.466797 0)"/>
    <use xlink:href="#Arial-ItalicMT-20" transform="translate(2844.443359 0)"/>
    <use xlink:href="#Arial-ItalicMT-4c" transform="translate(2872.226562 0)"/>
    <use xlink:href="#Arial-ItalicMT-69" transform="translate(2927.841797 0)"/>
    <use xlink:href="#Arial-ItalicMT-63" transform="translate(2950.058594 0)"/>
    <use xlink:href="#Arial-ItalicMT-65" transform="translate(3000.058594 0)"/>
    <use xlink:href="#Arial-ItalicMT-6e" transform="translate(3055.673828 0)"/>
    <use xlink:href="#Arial-ItalicMT-73" transform="translate(3111.289062 0)"/>
    <use xlink:href="#Arial-ItalicMT-65" transform="translate(3161.289062 0)"/>
    <use xlink:href="#Arial-ItalicMT-3a" transform="translate(3216.904297 0)"/>
    <use xlink:href="#Arial-ItalicMT-20" transform="translate(3244.6875 0)"/>
    <use xlink:href="#Arial-ItalicMT-41" transform="translate(3268.720703 0)"/>
    <use xlink:href="#Arial-ItalicMT-63" transform="translate(3335.419922 0)"/>
    <use xlink:href="#Arial-ItalicMT-61" transform="translate(3385.419922 0)"/>
    <use xlink:href="#Arial-ItalicMT-64" transform="translate(3441.035156 0)"/>
    <use xlink:href="#Arial-ItalicMT-65" transform="translate(3496.650391 0)"/>
    <use xlink:href="#Arial-ItalicMT-6d" transform="translate(3552.265625 0)"/>
    <use xlink:href="#Arial-ItalicMT-69" transform="translate(3635.566406 0)"/>
    <use xlink:href="#Arial-ItalicMT-63" transform="translate(3657.783203 0)"/>
    <use xlink:href="#Arial-ItalicMT-20" transform="translate(3707.783203 0)"/>
    <use xlink:href="#Arial-ItalicMT-46" transform="translate(3735.566406 0)"/>
    <use xlink:href="#Arial-ItalicMT-72" transform="translate(3796.650391 0)"/>
    <use xlink:href="#Arial-ItalicMT-65" transform="translate(3829.951172 0)"/>
    <use xlink:href="#Arial-ItalicMT-65" transform="translate(3885.566406 0)"/>
    <use xlink:href="#Arial-ItalicMT-20" transform="translate(3941.181641 0)"/>
    <use xlink:href="#Arial-ItalicMT-7c" transform="translate(3968.964844 0)"/>
    <use xlink:href="#Arial-ItalicMT-20" transform="translate(3994.941406 0)"/>
    <use xlink:href="#Arial-ItalicMT-41" transform="translate(4018.974609 0)"/>
    <use xlink:href="#Arial-ItalicMT-75" transform="translate(4085.673828 0)"/>
    <use xlink:href="#Arial-ItalicMT-64" transform="translate(4141.289062 0)"/>
    <use xlink:href="#Arial-ItalicMT-69" transform="translate(4196.904297 0)"/>
    <use xlink:href="#Arial-ItalicMT-74" transform="translate(4219.121094 0)"/>
    <use xlink:href="#Arial-ItalicMT-61" transform="translate(4246.904297 0)"/>
    <use xlink:href="#Arial-ItalicMT-62" transform="translate(4302.519531 0)"/>
    <use xlink:href="#Arial-ItalicMT-6c" transform="translate(4358.134766 0)"/>
    <use xlink:href="#Arial-ItalicMT-65" transform="translate(4380.351562 0)"/>
    <use xlink:href="#Arial-ItalicMT-20" transform="translate(4435.966797 0)"/>
    <use xlink:href="#Arial-ItalicMT-4f" transform="translate(4463.75 0)"/>
    <use xlink:href="#Arial-ItalicMT-70" transform="translate(4541.533203 0)"/>
    <use xlink:href="#Arial-ItalicMT-65" transform="translate(4597.148438 0)"/>
    <use xlink:href="#Arial-ItalicMT-6e" transform="translate(4652.763672 0)"/>
    <use xlink:href="#Arial-ItalicMT-20" transform="translate(4708.378906 0)"/>
    <use xlink:href="#Arial-ItalicMT-53" transform="translate(4736.162109 0)"/>
    <use xlink:href="#Arial-ItalicMT-63" transform="translate(4802.861328 0)"/>
    <use xlink:href="#Arial-ItalicMT-69" transform="translate(4852.861328 0)"/>
    <use xlink:href="#Arial-ItalicMT-65" transform="translate(4875.078125 0)"/>
    <use xlink:href="#Arial-ItalicMT-6e" transform="translate(4930.693359 0)"/>
    <use xlink:href="#Arial-ItalicMT-63" transform="translate(4986.308594 0)"/>
    <use xlink:href="#Arial-ItalicMT-65" transform="translate(5036.308594 0)"/>
   </g>
  </g>
 </g>
 <defs>
  <clipPath id="p4f7b6c0001">
   <rect x="38.539375" y="43.9605" width="446.4" height="249.48"/>
  </clipPath>
 </defs>
</svg>
